<svg xmlns="http://www.w3.org/2000/svg" xmlns:xlink="http://www.w3.org/1999/xlink" width="0" height="0" style="display:none;"><symbol viewBox="0 0 24 24" id="arrow-right-s-line"><path d="M13.1717 12.0007L8.22192 7.05093L9.63614 5.63672L16.0001 12.0007L9.63614 18.3646L8.22192 16.9504L13.1717 12.0007Z" fill="currentColor"></path></symbol><symbol viewBox="0 0 24 24" id="arrow-left-s-line"><path d="M10.8284 12.0007L15.7782 16.9504L14.364 18.3646L8 12.0007L14.364 5.63672L15.7782 7.05093L10.8284 12.0007Z" fill="currentColor"></path></symbol><symbol viewBox="0 0 24 24" id="information-line"><path d="M12 22C6.47715 22 2 17.5228 2 12C2 6.47715 6.47715 2 12 2C17.5228 2 22 6.47715 22 12C22 17.5228 17.5228 22 12 22ZM12 20C16.4183 20 20 16.4183 20 12C20 7.58172 16.4183 4 12 4C7.58172 4 4 7.58172 4 12C4 16.4183 7.58172 20 12 20ZM11 7H13V9H11V7ZM11 11H13V17H11V11Z" fill="currentColor"></path></symbol><symbol viewBox="0 0 24 24" id="instagram-line"><path d="M12.001 9C10.3436 9 9.00098 10.3431 9.00098 12C9.00098 13.6573 10.3441 15 12.001 15C13.6583 15 15.001 13.6569 15.001 12C15.001 10.3427 13.6579 9 12.001 9ZM12.001 7C14.7614 7 17.001 9.2371 17.001 12C17.001 14.7605 14.7639 17 12.001 17C9.24051 17 7.00098 14.7629 7.00098 12C7.00098 9.23953 9.23808 7 12.001 7ZM18.501 6.74915C18.501 7.43926 17.9402 7.99917 17.251 7.99917C16.5609 7.99917 16.001 7.4384 16.001 6.74915C16.001 6.0599 16.5617 5.5 17.251 5.5C17.9393 5.49913 18.501 6.0599 18.501 6.74915ZM12.001 4C9.5265 4 9.12318 4.00655 7.97227 4.0578C7.18815 4.09461 6.66253 4.20007 6.17416 4.38967C5.74016 4.55799 5.42709 4.75898 5.09352 5.09255C4.75867 5.4274 4.55804 5.73963 4.3904 6.17383C4.20036 6.66332 4.09493 7.18811 4.05878 7.97115C4.00703 9.0752 4.00098 9.46105 4.00098 12C4.00098 14.4745 4.00753 14.8778 4.05877 16.0286C4.0956 16.8124 4.2012 17.3388 4.39034 17.826C4.5591 18.2606 4.7605 18.5744 5.09246 18.9064C5.42863 19.2421 5.74179 19.4434 6.17187 19.6094C6.66619 19.8005 7.19148 19.9061 7.97212 19.9422C9.07618 19.9939 9.46203 20 12.001 20C14.4755 20 14.8788 19.9934 16.0296 19.9422C16.8117 19.9055 17.3385 19.7996 17.827 19.6106C18.2604 19.4423 18.5752 19.2402 18.9074 18.9085C19.2436 18.5718 19.4445 18.2594 19.6107 17.8283C19.8013 17.3358 19.9071 16.8098 19.9432 16.0289C19.9949 14.9248 20.001 14.5389 20.001 12C20.001 9.52552 19.9944 9.12221 19.9432 7.97137C19.9064 7.18906 19.8005 6.66149 19.6113 6.17318C19.4434 5.74038 19.2417 5.42635 18.9084 5.09255C18.573 4.75715 18.2616 4.55693 17.8271 4.38942C17.338 4.19954 16.8124 4.09396 16.0298 4.05781C14.9258 4.00605 14.5399 4 12.001 4ZM12.001 2C14.7176 2 15.0568 2.01 16.1235 2.06C17.1876 2.10917 17.9135 2.2775 18.551 2.525C19.2101 2.77917 19.7668 3.1225 20.3226 3.67833C20.8776 4.23417 21.221 4.7925 21.476 5.45C21.7226 6.08667 21.891 6.81333 21.941 7.8775C21.9885 8.94417 22.001 9.28333 22.001 12C22.001 14.7167 21.991 15.0558 21.941 16.1225C21.8918 17.1867 21.7226 17.9125 21.476 18.55C21.2218 19.2092 20.8776 19.7658 20.3226 20.3217C19.7668 20.8767 19.2076 21.22 18.551 21.475C17.9135 21.7217 17.1876 21.89 16.1235 21.94C15.0568 21.9875 14.7176 22 12.001 22C9.28431 22 8.94514 21.99 7.87848 21.94C6.81431 21.8908 6.08931 21.7217 5.45098 21.475C4.79264 21.2208 4.23514 20.8767 3.67931 20.3217C3.12348 19.7658 2.78098 19.2067 2.52598 18.55C2.27848 17.9125 2.11098 17.1867 2.06098 16.1225C2.01348 15.0558 2.00098 14.7167 2.00098 12C2.00098 9.28333 2.01098 8.94417 2.06098 7.8775C2.11014 6.8125 2.27848 6.0875 2.52598 5.45C2.78014 4.79167 3.12348 4.23417 3.67931 3.67833C4.23514 3.1225 4.79348 2.78 5.45098 2.525C6.08848 2.2775 6.81348 2.11 7.87848 2.06C8.94514 2.0125 9.28431 2 12.001 2Z" fill="currentColor"></path></symbol><symbol viewBox="0 0 24 24" id="threads-line"><path d="M12.1835 1.41016L12.1822 1.41016C9.09012 1.43158 6.70036 2.47326 5.09369 4.51569C3.66581 6.33087 2.93472 8.86436 2.91016 12.0068V12.0082C2.93472 15.1508 3.66586 17.6696 5.09369 19.4847C6.70043 21.5271 9.10257 22.5688 12.1946 22.5902H12.1958C14.944 22.5711 16.8929 21.8504 18.4985 20.2463C20.6034 18.1434 20.5408 15.5048 19.8456 13.8832C19.3163 12.6493 18.2709 11.6618 16.8701 11.0477C16.6891 8.06345 15.0097 6.32178 12.2496 6.30415C10.6191 6.29409 9.14792 7.02378 8.24685 8.39104L9.90238 9.5267C10.4353 8.71818 11.2789 8.32815 12.2371 8.33701C13.6244 8.34586 14.5362 9.11128 14.7921 10.4541C14.02 10.3333 13.1902 10.2982 12.3076 10.3488C9.66843 10.5008 7.9399 12.061 8.05516 14.2244C8.17571 16.4862 10.367 17.7186 12.4476 17.605C14.9399 17.4684 16.4209 15.6292 16.7722 13.2836C17.3493 13.6575 17.7751 14.1344 18.0163 14.6969C18.4559 15.7222 18.4838 17.4132 17.1006 18.7952C15.8838 20.0108 14.4211 20.5407 12.1891 20.5572C9.71428 20.5388 7.85698 19.746 6.65154 18.2136C5.51973 16.7748 4.92843 14.6882 4.90627 12.0002C4.92843 9.31211 5.51973 7.22549 6.65154 5.78673C7.85698 4.25433 9.71424 3.46156 12.189 3.44303C14.6819 3.4617 16.5728 4.25837 17.8254 5.79937C18.5162 6.64934 18.949 7.66539 19.2379 8.71407L21.1776 8.19656C20.8148 6.85917 20.2414 5.58371 19.363 4.50305C17.7098 2.46918 15.2816 1.43166 12.1835 1.41016ZM12.4204 12.3782C13.3044 12.3272 14.1239 12.3834 14.8521 12.5345C14.7114 14.1116 14.0589 15.4806 12.3401 15.575C11.2282 15.6376 10.1031 15.1413 10.0484 14.114C10.0077 13.3503 10.5726 12.4847 12.4204 12.3782Z" fill="currentColor"></path></symbol><symbol viewBox="0 0 24 24" id="facebook-circle-line"><path d="M13.001 19.9381C16.9473 19.446 20.001 16.0796 20.001 12C20.001 7.58172 16.4193 4 12.001 4C7.5827 4 4.00098 7.58172 4.00098 12C4.00098 16.0796 7.05467 19.446 11.001 19.9381V14H9.00098V12H11.001V10.3458C11.001 9.00855 11.1402 8.52362 11.4017 8.03473C11.6631 7.54584 12.0468 7.16216 12.5357 6.9007C12.9184 6.69604 13.3931 6.57252 14.2227 6.51954C14.5519 6.49851 14.9781 6.52533 15.501 6.6V8.5H15.001C14.0837 8.5 13.7052 8.54332 13.4789 8.66433C13.3386 8.73939 13.2404 8.83758 13.1653 8.97793C13.0443 9.20418 13.001 9.42853 13.001 10.3458V12H15.501L15.001 14H13.001V19.9381ZM12.001 22C6.47813 22 2.00098 17.5228 2.00098 12C2.00098 6.47715 6.47813 2 12.001 2C17.5238 2 22.001 6.47715 22.001 12C22.001 17.5228 17.5238 22 12.001 22Z" fill="currentColor"></path></symbol><symbol viewBox="0 0 24 24" id="spotify-line"><path d="M12.001 2C17.551 2 22.001 6.5 22.001 12C22.001 17.5 17.501 22 12.001 22C6.50098 22 2.00098 17.5 2.00098 12C2.00098 6.5 6.50098 2 12.001 2ZM12.001 4C7.60555 4 4.00098 7.60457 4.00098 12C4.00098 16.3954 7.60555 20 12.001 20C16.3964 20 20.001 16.3954 20.001 12C20.001 7.58572 16.4276 4 12.001 4ZM15.751 16.65C13.401 15.2 10.451 14.8992 6.95014 15.6992C6.60181 15.8008 6.30098 15.55 6.20098 15.25C6.10098 14.8992 6.35098 14.6 6.65098 14.5C10.451 13.6492 13.751 14 16.351 15.6C16.701 15.75 16.7501 16.1492 16.6018 16.45C16.4018 16.7492 16.0518 16.85 15.751 16.65ZM16.7501 13.95C14.051 12.3 9.95098 11.8 6.80098 12.8C6.40181 12.9 5.95098 12.7 5.85098 12.3C5.75098 11.9 5.95098 11.4492 6.35098 11.3492C10.001 10.25 14.501 10.8008 17.601 12.7C17.9018 12.8508 18.051 13.35 17.8018 13.7C17.551 14.05 17.101 14.2 16.7501 13.95ZM6.30098 9.75083C5.80098 9.9 5.30098 9.6 5.15098 9.15C5.00098 8.64917 5.30098 8.15 5.75098 7.99917C9.30098 6.94917 15.151 7.14917 18.8518 9.35C19.301 9.6 19.451 10.2 19.201 10.65C18.9518 11.0008 18.351 11.1492 17.9018 10.9C14.701 9 9.35098 8.8 6.30098 9.75083Z" fill="currentColor"></path></symbol><symbol viewBox="0 0 24 24" id="reddit-line"><path d="M11.0526 7.8154L11.8042 4.27941C12.0339 3.19898 13.0959 2.50929 14.1764 2.73894L17.3725 3.4183C17.8351 2.90546 18.5509 2.64644 19.275 2.80035C20.3554 3.03 21.0451 4.09204 20.8155 5.17247C20.5858 6.2529 19.5238 6.94259 18.4434 6.71294C17.7193 6.55903 17.1707 6.03124 16.9567 5.3746L13.7605 4.69523L13.0943 7.82978C14.8789 7.96683 16.6522 8.56079 18.2581 9.52961C19.0892 9.06763 20.0992 8.99337 21.007 9.36091C22.1731 9.833 22.9531 10.9459 22.9991 12.2031L22.9996 12.2241C23.0151 13.2277 22.559 14.1657 21.792 14.7742C21.7899 14.8178 21.7871 14.859 21.7836 14.8971C21.7836 18.8949 17.3341 21.9267 11.9852 21.9267C6.65232 21.9267 2.27693 18.9027 2.27987 14.9738C2.27523 14.9134 2.27162 14.853 2.26905 14.7926C1.46701 14.1873 0.984722 13.2277 1.00037 12.1962C1.01955 10.9317 1.78341 9.79777 2.94804 9.30491C3.85909 8.91936 4.881 8.98299 5.72371 9.44381C7.3578 8.46653 9.15777 7.91241 11.0526 7.8154ZM20.3385 13.341C20.7466 13.1382 21.003 12.7207 21.0001 12.2656C20.9789 11.8005 20.6887 11.3897 20.2565 11.2147C19.821 11.0384 19.3226 11.1343 18.9837 11.4597L18.3991 12.0207L17.729 11.5652C16.1137 10.4672 14.2771 9.8397 12.4995 9.80134L11.493 9.80123C9.61791 9.8295 7.84136 10.4002 6.25552 11.4757L5.59246 11.9254L5.00897 11.3764C4.66501 11.0528 4.16243 10.9627 3.7275 11.1468C3.29257 11.3308 3.0073 11.7543 3 12.2265C2.99298 12.6987 3.26526 13.1307 3.69441 13.3278L4.32738 13.6186L4.27399 14.3132C4.261 14.482 4.261 14.6516 4.27693 14.8971C4.27693 17.6071 7.63313 19.9267 11.9852 19.9267C16.3561 19.9267 19.7836 17.5913 19.7865 14.8205C19.7995 14.6516 19.7995 14.482 19.7865 14.3132L19.7348 13.6411L20.3385 13.341ZM6.95075 13.4999C6.95075 12.6715 7.62232 11.9999 8.45075 11.9999C9.27918 11.9999 9.95075 12.6715 9.95075 13.4999C9.95075 14.3283 9.27918 14.9999 8.45075 14.9999C8.05292 14.9999 7.67139 14.8419 7.39009 14.5606C7.10878 14.2793 6.95075 13.8977 6.95075 13.4999ZM13.9507 13.4999C13.9507 12.6715 14.6223 11.9999 15.4507 11.9999C16.2792 11.9999 16.9507 12.6715 16.9507 13.4999C16.9507 14.3283 16.2792 14.9999 15.4507 14.9999C15.0529 14.9999 14.6714 14.8419 14.3901 14.5606C14.1088 14.2793 13.9507 13.8977 13.9507 13.4999ZM11.9665 18.6028C10.5693 18.6028 9.19993 18.2329 8.08503 17.3928C7.94659 17.2241 7.95868 16.9779 8.11299 16.8236C8.2673 16.6693 8.51349 16.6572 8.68218 16.7956C9.62697 17.4886 10.805 17.7856 11.9507 17.7856C13.0965 17.7856 14.2813 17.5112 15.235 16.8271C15.3473 16.7176 15.5095 16.6763 15.6604 16.7188C15.8114 16.7613 15.9282 16.8811 15.9669 17.0331C16.0055 17.1851 15.9517 17.3346 15.8479 17.4556C15.1638 18.2531 13.3636 18.6028 11.9665 18.6028Z" fill="currentColor"></path></symbol><symbol viewBox="0 0 24 24" id="gamepad-line"><path d="M17 4C20.3137 4 23 6.68629 23 10V14C23 17.3137 20.3137 20 17 20H7C3.68629 20 1 17.3137 1 14V10C1 6.68629 3.68629 4 7 4H17ZM17 6H7C4.8578 6 3.10892 7.68397 3.0049 9.80036L3 10V14C3 16.1422 4.68397 17.8911 6.80036 17.9951L7 18H17C19.1422 18 20.8911 16.316 20.9951 14.1996L21 14V10C21 7.8578 19.316 6.10892 17.1996 6.0049L17 6ZM10 9V11H12V13H9.999L10 15H8L7.999 13H6V11H8V9H10ZM18 13V15H16V13H18ZM16 9V11H14V9H16Z" fill="currentColor"></path></symbol><symbol viewBox="0 0 24 24" id="github-line"><path d="M5.88401 18.6533C5.58404 18.4526 5.32587 18.1975 5.0239 17.8369C4.91473 17.7065 4.47283 17.1524 4.55811 17.2583C4.09533 16.6833 3.80296 16.417 3.50156 16.3089C2.9817 16.1225 2.7114 15.5499 2.89784 15.0301C3.08428 14.5102 3.65685 14.2399 4.17672 14.4263C4.92936 14.6963 5.43847 15.1611 6.12425 16.0143C6.03025 15.8974 6.46364 16.441 6.55731 16.5529C6.74784 16.7804 6.88732 16.9182 6.99629 16.9911C7.20118 17.1283 7.58451 17.1874 8.14709 17.1311C8.17065 16.7489 8.24136 16.3783 8.34919 16.0358C5.38097 15.3104 3.70116 13.3952 3.70116 9.63971C3.70116 8.40085 4.0704 7.28393 4.75917 6.3478C4.5415 5.45392 4.57433 4.37284 5.06092 3.15636C5.1725 2.87739 5.40361 2.66338 5.69031 2.57352C5.77242 2.54973 5.81791 2.53915 5.89878 2.52673C6.70167 2.40343 7.83573 2.69705 9.31449 3.62336C10.181 3.41879 11.0885 3.315 12.0012 3.315C12.9129 3.315 13.8196 3.4186 14.6854 3.62277C16.1619 2.69 17.2986 2.39649 18.1072 2.52651C18.1919 2.54013 18.2645 2.55783 18.3249 2.57766C18.6059 2.66991 18.8316 2.88179 18.9414 3.15636C19.4279 4.37256 19.4608 5.45344 19.2433 6.3472C19.9342 7.28337 20.3012 8.39208 20.3012 9.63971C20.3012 13.3968 18.627 15.3048 15.6588 16.032C15.7837 16.447 15.8496 16.9105 15.8496 17.4121C15.8496 18.0765 15.8471 18.711 15.8424 19.4225C15.8412 19.6127 15.8397 19.8159 15.8375 20.1281C16.2129 20.2109 16.5229 20.5077 16.6031 20.9089C16.7114 21.4504 16.3602 21.9773 15.8186 22.0856C14.6794 22.3134 13.8353 21.5538 13.8353 20.5611C13.8353 20.4708 13.836 20.3417 13.8375 20.1145C13.8398 19.8015 13.8412 19.599 13.8425 19.4094C13.8471 18.7019 13.8496 18.0716 13.8496 17.4121C13.8496 16.7148 13.6664 16.2602 13.4237 16.051C12.7627 15.4812 13.0977 14.3973 13.965 14.2999C16.9314 13.9666 18.3012 12.8177 18.3012 9.63971C18.3012 8.68508 17.9893 7.89571 17.3881 7.23559C17.1301 6.95233 17.0567 6.54659 17.199 6.19087C17.3647 5.77663 17.4354 5.23384 17.2941 4.57702L17.2847 4.57968C16.7928 4.71886 16.1744 5.0198 15.4261 5.5285C15.182 5.69438 14.8772 5.74401 14.5932 5.66413C13.7729 5.43343 12.8913 5.315 12.0012 5.315C11.111 5.315 10.2294 5.43343 9.40916 5.66413C9.12662 5.74359 8.82344 5.69492 8.57997 5.53101C7.8274 5.02439 7.2056 4.72379 6.71079 4.58376C6.56735 5.23696 6.63814 5.77782 6.80336 6.19087C6.94565 6.54659 6.87219 6.95233 6.61423 7.23559C6.01715 7.8912 5.70116 8.69376 5.70116 9.63971C5.70116 12.8116 7.07225 13.9683 10.023 14.2999C10.8883 14.3971 11.2246 15.4769 10.5675 16.0482C10.3751 16.2156 10.1384 16.7802 10.1384 17.4121V20.5611C10.1384 21.5474 9.30356 22.2869 8.17878 22.09C7.63476 21.9948 7.27093 21.4766 7.36613 20.9326C7.43827 20.5204 7.75331 20.2116 8.13841 20.1276V19.1381C7.22829 19.1994 6.47656 19.0498 5.88401 18.6533Z" fill="currentColor"></path></symbol><symbol viewBox="0 0 24 24" id="codepen-fill"><path d="M12 10.2018L9.30278 12L12 13.7982L14.6972 12L12 10.2018ZM16.5 10.7982L19.1972 9L13 4.86852V8.46482L16.5 10.7982ZM20 10.8685L18.3028 12L20 13.1315V10.8685ZM16.5 13.2018L13 15.5352V19.1315L19.1972 15L16.5 13.2018ZM11 8.46482V4.86852L4.80278 9L7.5 10.7982L11 8.46482ZM4.80278 15L11 19.1315V15.5352L7.5 13.2018L4.80278 15ZM5.69722 12L4 10.8685V13.1315L5.69722 12ZM2 9C2 8.66565 2.1671 8.35342 2.4453 8.16795L11.4453 2.16795C11.7812 1.94402 12.2188 1.94402 12.5547 2.16795L21.5547 8.16795C21.8329 8.35342 22 8.66565 22 9V15C22 15.3344 21.8329 15.6466 21.5547 15.8321L12.5547 21.8321C12.2188 22.056 11.7812 22.056 11.4453 21.8321L2.4453 15.8321C2.1671 15.6466 2 15.3344 2 15V9Z" fill="currentColor"></path></symbol><symbol viewBox="0 0 24 24" id="stack-overflow-line"><path d="M18.001 20.0025V15.0001H20.001V22.0025H4.00098V15.0001H6.00098V20.0025H18.001ZM7.50098 18.0001V16.0001H16.501V18.0001H7.50098ZM7.578 13.6197L7.9253 11.65L16.7886 13.2129L16.4413 15.1825L7.578 13.6197ZM9.21156 8.11608L10.2116 6.38403L18.0058 10.884L17.0058 12.6161L9.21156 8.11608ZM12.6289 3.5031L14.161 2.21753L19.9461 9.11193L18.414 10.3975L12.6289 3.5031Z" fill="currentColor"></path></symbol><symbol viewBox="0 0 24 24" id="arrow-up-s-line"><path d="M11.9999 10.8284L7.0502 15.7782L5.63599 14.364L11.9999 8L18.3639 14.364L16.9497 15.7782L11.9999 10.8284Z" fill="currentColor"></path></symbol></svg>