<svg version="1" xmlns="http://www.w3.org/2000/svg" width="960" height="960" viewBox="0 0 720.000000 720.000000"><path d="M0 360v360h157.2c86.4 0 156.9-.2 156.6-.5-.3-.3-3.4-.8-6.9-1-15.3-1.1-17.3-2.2-19.8-11.1-1.6-5.7-1.4-6.5 2.4-10.7 1.9-2.1 3.5-4.6 3.5-5.6s.9-3 2-4.3c1.7-2.2 2.6-2.5 7.2-2.2 2.9.1 7.1.5 9.3.9 2.2.3 6 .8 8.4 1.1 2.4.2 4.7.7 5.2.9 1.2.8 3-3.1 2.3-4.9-.3-.9-1-1.6-1.5-1.6s-.9-.9-.9-2.1c0-1.1-.5-1.7-1-1.4-.6.3-1 .2-1-.4 0-.5.6-1.2 1.2-1.4 1-.4 1-.6.1-.6-.7-.1-1-.8-.7-1.6.4-.8.1-1.5-.5-1.5-1.4 0-.7-11.3.8-11.8 1.4-.5 1.5-3.2.1-3.2-.6 0-.5-.9.2-2.2 1.5-2.5 1.6-4.8.4-9.1-.4-1.6-.3-3.4.2-4 .5-.7 1.2-2.9 1.4-5.1.4-3.4.3-3.6-1-2-1.2 1.7-1.3 1.6-.6-1 .5-2.2.4-2.7-.6-2.1-1 .6-1.2.1-.8-1.9.4-1.8.1-2.9-.8-3.3-.8-.3-1.4-1.1-1.4-1.9 0-.7-.8-1.9-1.9-2.6-1-.7-2.1-2.3-2.5-3.6-.4-1.2-1.4-2.2-2.2-2.2-.8 0-1.4-.4-1.4-.9s-2.5-3.5-5.5-6.8c-3-3.2-5.5-6.1-5.5-6.6 0-.4-.4-.7-.9-.7-2.5 0-43.2-40.8-46.4-46.5-.4-.8-2.1-2.9-3.8-4.7-9.1-10-23.3-35.2-26.3-46.8-2-7.3-2.7-15-1.4-15 .4 0 .8-.4.8-1 0-.5-.7-.7-1.6-.3-1.3.5-1.5.2-.8-1.8.4-1.3.6-3.3.5-4.4-.2-1.1-.4-3.4-.4-5.2-.1-1.7-.6-3.1-1.1-3-.5.1-1.1-.4-1.4-1.2-.3-.8 0-1.1.7-.7 1.5 1 1.4-.7-.1-2.3-1.1-1-.9-1.1.7-.6 1.8.6 1.8.5.3-.5-1-.6-1.8-1.8-1.8-2.6s-.4-1.2-1-.9c-.5.3-1 .1-1-.4 0-.6 1-1.1 2.3-1.1 1.2 0 1.7-.3 1.1-.8-.6-.4-1-1.7-.9-2.9.1-1.2-.4-2.4-1.1-2.7-.7-.3-1-1.4-.7-2.5.3-1.2 0-2.8-.7-3.6-.6-.8-.9-1.9-.5-2.5.3-.5.1-1-.5-1s-.8-.5-.5-1c.4-.6 1.2-.8 1.8-.4.7.3.3-.2-.8-1-1.7-1.4-1.8-2-.8-4.6.7-1.8.7-2.8.1-2.4-.5.3-.2-.8.7-2.6.9-1.8 1.2-2.9.6-2.6-1 .7-1.6-1.2-1.2-4.2.1-.6-.5-1.2-1.4-1.2-.8 0-1.5-.5-1.5-1.1 0-.5.6-.7 1.3-.3.8.6.8.3-.2-.9-.7-.9-1.1-2.4-.7-3.2.3-.8.1-1.5-.4-1.5s-.7-1.7-.4-3.8c.3-2 .6-4.6.8-5.7.1-1.2.6-2.6 1-3.3.4-.7.3-1.2-.3-1.2-.5 0-.6-1.1-.2-2.8.5-1.6 1.4-2.6 2.2-2.4.8.2 1.1 0 .7-.4-.4-.4-.3-1.3.3-2 .7-.8.6-1.4-.2-2-.8-.5-.9-.3-.4.6.5.8.4 1.1-.2.7-1-.6 3.2-19.5 4.8-21.2 1.2-1.2 1.2-2.8-.1-2-1.5.9-1.2-.7.5-3.2 1.1-1.6 1.2-2.2.2-2.6-.6-.2-1-.7-.7-1 .3-.3 3.2.6 6.4 1.9 3.3 1.3 6.1 2.2 6.4 1.9.3-.2-.8-.9-2.4-1.5-1.6-.6-4.4-1.8-6.1-2.8-3.1-1.5-3.3-1.9-2.9-6 .5-5.1.7-5.5 3-4.6 1.3.5 1.4.9.5 2-.6.8-1.5 1.2-1.8.9-.4-.2-.8.2-.8 1s.4 1.5.9 1.5c.4 0 .8-.5.8-1.1 0-.5.4-.8.9-.4.5.3 1.7-.3 2.7-1.2 1.7-1.7 1.8-1.7 1.1-.1-.4 1.2-.2 1.8.8 1.8.9 0 1.5 1 1.5 2.6s1.1 3.7 2.8 5.2c1.6 1.5 3.1 3.5 3.5 4.4.3 1 1.2 1.8 1.8 1.8.7 0 .9 1.1.5 3-.3 1.7-.2 2.9.2 2.6.4-.3 1.4-.1 2.2.5 1 .6 1.1.9.3.9-2 0 2.3 7 6.9 11.4 2.3 2.1 5.3 4 6.7 4.2 10.5 1.6 11 1.6 13.3 0 2.6-1.8 6.1-2.1 8.9-.6 1.4.8 1.9.7 1.9-.1 0-.8.7-.6 1.8.4 1 1 2.2 1.4 2.7 1 .4-.5.6-.1.3.8-.5 1.3.1 1.5 2.8 1.4 1.9-.2 3.7.1 4 .6.3.5 1 .7 1.5.4.5-.4.9-.2.9.2 0 1.6 5.4 1.3 7.3-.4 1.3-1.1 1.7-1.2 1.2-.4-.6 1.1-.4 1.3 1.1.6 1-.5 3.5-.8 5.4-.7 1.9 0 3.8-.4 4.2-1.1.6-.9 1-.9 1.7.2.5.8 1.4 1 2.2.5 1.2-.6 1.2-.5.1.8-1 1.3-1 1.8-.1 2.4.7.4 1 .3.7-.2-.3-.5 0-1.5.8-2.2 1.2-1.1 1.4-.9 1.4.9 0 1.7.3 1.9 1.3 1 .8-.6 1.6-.8 2-.5.3.3 1.5.1 2.6-.6 1.7-.9 2.1-.8 2.1.5 0 .8.9 1.5 2 1.5 2.7 0 3.6-.3 3.2-1.3-.1-.5.3-.7 1-.4.7.2 2.1 0 3-.4 1-.6 1.9-.5 2.4.2.4.8.9.7 1.5-.2.7-1.1.9-1.1.9-.1 0 .7.5 1 1 .7.6-.4.7-1.2.3-1.8-.4-.7.2-.5 1.2.3 1.1.9 1.6 1 1.1.2-.4-.7-.2-1.2.8-1.2.8 0 1.6.5 1.8 1.1.2.6 1-.2 1.7-1.8 2.6-5.4 2.9-5.8 4.7-5.5 1.2.2 1.5 0 .8-.5-.6-.4-1.3-1.7-1.7-2.8-.3-1.1-1.3-3.9-2.1-6.2-.8-2.2-1.6-5.8-1.7-8-.2-2.1-1.1-5-2.1-6.5-1-1.4-1.5-3.3-1.2-4.2.3-.8-.1-2.5-1-3.8-.9-1.2-1.6-3-1.6-3.9 0-1-.6-1.9-1.2-2.1-.9-.3-.8-1.2.5-3.1 1-1.5 2.2-2.7 2.7-2.7 1.5 0-.1-3.3-2.9-6.1-4.1-4.1-16.2-9.9-20.7-9.9-1.2 0-2.5-.4-2.8-.9-.3-.5-2.7-1.4-5.3-2.1-2.6-.6-5.1-1.6-5.4-2.1-.7-1.1-2.8-1.6-13.6-2.9-4-.4-7.8-1.2-8.5-1.6-.7-.5-2.3-.7-3.5-.5-1.3.1-2.3-.3-2.3-1 0-.8-.4-.8-1.5.1-1.3 1.1-1.4 1-.9-.4.4-1.2.1-1.6-1.2-1.4-3.4.2-5.5-.2-5-1.1.3-.4-.7-.8-2.2-.7-1.5.1-4.4-.2-6.5-.6-2.7-.6-4.8-.4-7.5.9-4.4 2-7.2 2.4-7.2 1 0-.5-.7-.4-1.5.3s-1.5.9-1.5.5-.7-.1-1.6.6c-.9.7-2.9 1.2-4.5 1.1-1.6-.1-2.9.1-2.9.5 0 .5-1.4.8-3 .9-2.2.1-3-.3-3-1.6 0-.9-.3-2-.7-2.3-.8-.8-1.4-6.8-1.3-12.5 0-5 2.1-9.6 4.7-10.7 1.7-.6 1.7-.7-.1-2.1-1.6-1.1-1.7-1.7-.8-2.6.7-.7 1.2-2.2 1.2-3.5 0-1.3.5-2.3 1.1-2.3.6 0 .9-.6.6-1.3-.2-.6.2-1.9 1-2.8.8-.9 1.6-3.1 1.8-4.9.2-1.8.9-3.8 1.6-4.6.6-.7.8-1.8.5-2.3-.4-.5-.1-1.3.5-1.6.5-.4.8-1.3.5-2-.3-.8-.1-1.5.4-1.7.4-.2 1-1.2 1.2-2.3.1-1.1 1.3-2.8 2.6-3.9 1.3-1 2.1-2.5 1.8-3.2-.3-.8 0-1.4.7-1.4 1.5 0 4.8-3.6 4-4.4-.3-.2.4-1.8 1.6-3.4 2.5-3.6 2.6-4.3.6-3.6-1 .4-1.5 0-1.5-1.1 0-.9.4-1.4.9-1.1.5.3 1.2-.1 1.5-1 .3-.8.2-1.2-.4-.9-2.5 1.5-.7-1.4 2.4-4 1.9-1.6 3.2-3.3 2.9-3.7-.2-.5.7-2 2.1-3.3 2.7-2.5 3.5-4.2 1.4-2.9-.8.5-.7.1.2-1 .8-1.1 1.6-1.4 1.8-.7.6 1.9 2.2 1.2 2.2-1 0-1.1-.4-1.7-1-1.4-.6.3-.7-.1-.4-.9.3-.9 1-1.3 1.5-1 .5.3.9-.9.9-2.5 0-2 .5-3 1.3-2.8.7.1 1.2-.9 1.2-2.6-.1-1.8.3-2.6 1.2-2.3.7.3 1.3.2 1.4-.2.3-2.7.9-4.6 1.8-5.5 1.7-1.7 1.3-3.1-.4-1.7-1.2 1-1.5 1-1.5-.1 0-.8.9-2 2-2.7 1.1-.7 2-1.9 2-2.7 0-.8.4-1.5 1-1.5.5 0 .9-.6.7-1.3-.1-.7.6-1.1 1.7-.9 1.3.2 1.7-.1 1.3-1.1-.7-1.9 3.3-4 7.7-4.1 1.9-.1 3.2-.4 2.9-.9-.2-.4.5-.7 1.6-.7 1 0 2.1-.5 2.3-1.1.2-.5 1.5-1.2 2.8-1.4 5.7-.9 6.6-1.3 7.8-3.8 1.3-2.7 4.1-3.6 10.2-3.3 3.2.2 4.9-.8 5-2.6 0-.5-.5-.7-1.1-.5-.6.1-1.3-.3-1.5-.8-.2-.6 1.7-1 4.9-.9 2.8 0 5.7-.2 6.2-.5 2-1.1 5.4-1.1 6-.1 1.1 1.7 2.5 1.1 3.5-1.6.9-2.2 1.3-2.4 2.5-1.4.8.7 2.4 1 3.5.7 1.1-.3 2 0 2 .5 0 .6.6.5 1.5-.2 1.3-1.1 1.5-.8 1.5 1.3s.4 2.5 1.7 2c1.1-.4 1.4-.3.9.5-.4.7-.2 1.2.3 1.2.6 0 1.1-.5 1.1-1.1 0-.6.9-.8 2-.4 1.2.4 2.7.1 3.5-.5 1.8-1.5 2 .1.3 1.9-1.1 1-.7 1.1 1.7.5 4.7-1 4.8-1 5.9 1.1.9 1.7 2 2 6 1.8 2.7-.1 5.3-.8 5.8-1.5.5-.9.8-.7.8.7 0 1.1.4 1.5.8 1 1-1.4 7.1-3.5 8.6-2.9.8.3 2.2-1.2 3.4-3.8l2.1-4.3-.6 3.5c-.3 1.9-1 4.3-1.5 5.4-.8 1.4-.7 1.7.4 1.3.7-.2 1.2-1 1-1.7-.2-.8.3-1 1.5-.5 4 1.6 5 1.5 8.6-.9 2.1-1.4 4.1-2.6 4.4-2.6.4 0 1.5-.7 2.5-1.7 1.4-1.2 2.3-1.4 4-.6 1.8.8 2.9.6 4.8-.7 1.4-1 3.6-2.1 5-2.5 1.4-.4 3.5-1.7 4.8-2.8 1.2-1.1 2.2-1.6 2.2-1 0 .7 1.2.6 3.5-.1 1.9-.6 3.5-1.4 3.5-1.8 0-.5 1-.8 2.3-.7 2.1 0 2.1.1.2.9-1.1.5-1.4.9-.7.9 1.8.1 1.5 2.2-.6 3.7-1.2 1-1.3 1.3-.3 1.4.7 0 2.4-1 3.6-2.3 5.3-5.1 8-6.4 4.6-2-1.2 1.4-2 2.7-1.8 2.9.1.2 2.3-.4 4.7-1.2 2.5-.9 7-1.7 10-1.9 3.5-.3 5.9-.9 6.6-2 .8-1.1 1.4-1.3 1.9-.5.4.7 1.3.4 2.5-1 .9-1.1 2-2 2.3-2 1.2 0 0 3.6-1.7 5.1-1.2 1-1.6 2.1-1.1 2.9.6 1 1 .9 1.7-.4 1-1.8 4.3-2.2 5.3-.6.3.5 1.1 1 1.6 1 .6 0 .7-.5.4-1-1.1-1.8 2.3-2.2 6.7-.8 4.5 1.5 6.7 4.1 2.6 3.2-1.3-.3-3.3-.8-4.5-1.1-1.5-.4-2.3-.1-2.3.8 0 1.5 7.6 2 9.7.6 1.1-.7 2-.5 6.1.9 3.5 1.3 12.3 1.1 13.7-.3 1.9-1.8 2.4-1.6 1.8.7-.5 1.8-.3 1.9 2 1.1 1.9-.8 2.8-.6 3.8.6 1.1 1.3 1 1.5-1.1 1.3-4.8-.4-5.7-.1-3.7 1.4 1 .8 2.6 1.2 3.6.9 1-.3 2.2.1 2.6.7.5.9.1 1-1.6.6-2.3-.7-2.3-.7-.5.8 1.1.9 2.7 1.6 3.5 1.6 2.2.1 4.5 2 6.1 5 1.3 2.4 1.2 2.4-1.3-.3-2.8-2.9-4.7-3.5-4.7-1.5-.1.8-.6.6-1.4-.5-.7-.9-1.8-1.7-2.5-1.7-2.2 0-1 1.5 2.9 3.7 2.2 1.2 3.8 1.7 3.5 1.2-.9-1.4.5-1.1 2.1.5.8.8 2.3 1.2 3.6.9 1.6-.5 2-.3 1.6.8-.4 1.1.3 1.6 2.5 1.7 1.7.2 3.5.6 4.1 1.1 1.6 1.3 7.7 2.5 11 2.2 1.8-.2 2.6.1 2.2.8-.4.7.1 1.1 1.3 1.1 1.1 0 2.3.4 2.6 1 .3.5.1 1-.4 1-.6 0-1.1.7-1.1 1.6 0 .9.6 1.4 1.3 1.1.8-.3 1.2.7 1.3 3.2.1 2 .5 4.7.8 6.1.7 2.4.7 2.4-.8.6-2.1-2.5-2.1-1.2 0 1.8 1.4 2.3 1.4 2.5-.5 3.1-1.2.3-2.6.3-3.2-.1-1.9-1.1-7.9-2.2-7.9-1.4 0 .4 1.1 1.1 2.5 1.4 3.5.9 3.3 3.5-.1 2.8l-2.7-.5 2.4 3.4c1.3 1.9 2.7 3.5 3.2 3.7.4.2.7.8.7 1.3 0 .6-.5.7-1.2.3-1.6-1 0 1.6 3.1 4.8 1.4 1.5 3.1 2.8 3.8 2.8.6 0 1.3.6 1.6 1.2.4 1 .7 1 1.7.1s1-1.5.1-2.6c-2-2.5.2-6.3 3.5-6.1 2.4.1 2.9.5 2.7 2.5-.1 1.3 0 1.9.3 1.2s1.2-.9 2-.6c.7.3 1.1.9.8 1.4-.2.5 0 1.8.6 2.9.9 1.6.8 2.2-.5 2.6-2.3.9-1.8 2 1.9 3.8 3.8 1.8 5 2 4.2.8-.3-.5.1-.9.8-.9.8 0 1.2.7.8 1.5-.3 1-.1 1.3.6.8.6-.3 1.3-.3 1.6.2.3.5-.8 1.6-2.5 2.6-1.6.9-2.9 1.4-2.9 1 0-.4-.8 0-1.8.9-1.2 1.1-1.8 3-1.8 5.5.1 3.6-.1 3.8-2.6 3.7-2.4-.2-2.6 0-1.5 1.4.6.9 1.7 1.9 2.2 2.3.6.4.6.8.1.8s-.1 1 1 2.2c1 1.3 1.2 1.7.4 1-1.9-1.7-3.3-1.5-2.6.3.3.8 0 1.5-.6 1.5-.9 0-.9.3 0 1.2.7.7 1.2 1.8 1.2 2.6 0 1.8 2.2 4 3.7 3.5.6-.2 1.4.1 1.8.6.8 1.4 6.5 1.4 6.5.1 0-.6-.5-1-1.1-1-.5 0-.8-.4-.4-.9.3-.5-.6-2.2-2-3.7-3.9-4.2-3.3-5.7 1-2.8 1.4.9 2.5 1.2 2.5.6 0-.5-.6-1.2-1.4-1.5-1.3-.5-3-4.8-1.8-4.6.4 0 1.6.4 2.7.9 1.3.5 2.6.3 3.8-.8 1.5-1.4 1.7-1.3 1.7.3 0 1.4.3 1.5 1.5.5.9-.7 1.3-2.1 1-3.1-.5-1.5-.2-1.8 1.2-1.2 1 .3 2.4 1.1 3.1 1.6 1.5 1.2 2.4.5 3.9-3.6.6-1.8 1.2-2.4 1.2-1.5.1 2.2 2.1 2.4 2.1.3 0-1.2.4-1.3 1.8-.6 1.5.8 1.7.4 1.5-3.5-.1-3.2.3-4.4 1.3-4.4.8 0 1.4-.6 1.4-1.4 0-.8 1.1-2.3 2.5-3.4s2.5-2.5 2.5-3.1c0-1.3 4.8-4.6 5.7-3.8.3.3.6 1.8.6 3.1 0 1.4.3 2.3.8 2 .5-.3.9 0 .9.5 0 .6.7 1.1 1.6 1.1 1.4 0 1.5.2.3 1.7-.8 1-.9 1.4-.2 1 1.3-.8 2.2.3 2.8 3.4.6 2.9 1.4 3.6 2.4 2 .6-.9 1.2-.4 2.2 1.8.8 1.7 2 3.1 2.6 3.1.7 0 1.3.6 1.3 1.4 0 .8 1.4 1.9 3 2.5 1.7.5 3 1.3 3 1.6 0 .3-.6.3-1.2-.1-.7-.4-.5.2.6 1.4 1 1.2 2.3 1.9 2.9 1.5.6-.4.7-.1.3.6-.5.7-1.5 1-2.3.6-1.2-.4-1.3-.2-.5.7 1.3 1.6 1.7 6.8.7 9.1-.4.9-.5 2.9-.3 4.2.5 2.5-.5 3.4-1.8 1.4-.4-.7-1.1-.2-1.8 1.3-.7 1.3-.8 2.6-.3 2.9.5.4.5.9-.1 1.3-.6.3-1.8-.1-2.7-1-.9-.9-1.8-1.4-2.1-1.1-.3.2-2.4-1.3-4.7-3.4-2.3-2.1-5.1-4.7-6.2-5.7-2.3-2.1-4.4-1.8-6.3 1-.7 1-1.7 1.6-2.2 1.3-.4-.3-1.1.1-1.3.7-.4.8-.8.4-1.2-1-.4-1.2-1.3-2.2-2-2.2s-1.5-.6-1.8-1.3c-.2-.6-.7-.9-1.1-.6-.4.4 0 1.4.9 2.2 1.8 1.9 1.9 2.7.3 2.7-1.8 0-5.8 5-5.8 7.2 0 1.1.4 1.6 1 1.3.6-.3 1-.1 1 .4 0 .6-.6 1.1-1.2 1.1-.9 0-.8.3.2 1 .8.5 1.5 1.3 1.6 1.7 0 .4.4 1.6.9 2.7.4 1 .4 2.1-.1 2.5-1.1.7-1.2 7.7-.1 8.7 1.2 1.2.8 3.6-.5 2.8-.7-.4-.8-.3-.4.5.4.6 1.1.9 1.6.6.5-.3 1.1.4 1.5 1.5.4 1.1 2.6 4.1 5 6.7 2.4 2.5 4.2 5 3.9 5.4-.3.5.4 1.6 1.6 2.6 1.1 1 2 2.5 2 3.5s.4 1.8.8 1.8c1.3 0 3.2 4.7 3.2 7.6 0 1.4.4 2.3.9 1.9.5-.3.8.6.7 2-.2 1.4 0 4.6.4 7 .4 2.8.3 4.5-.3 4.5s-.7.3-.4.7c.4.3.2 1.2-.3 1.8-.8.9-.6 1.4.5 1.9.9.3 1.3 1 1 1.6-.3.5-.1 1 .4 1 .6 0 1.1.9 1.1 2s.5 2 1 2c.6 0 .8 1.1.6 2.5-.3 1.4-.1 2.5.3 2.5 1.1 0 4.3 7.7 4.8 11.6.3 2.1-.1 4.2-1.1 5.6-.9 1.2-1.6 2.7-1.6 3.3 0 .5.4.4.9-.3.7-1.1.9-1.1 1.4.2.4.9.2 1.6-.4 1.6-.6 0-.7.5-.3 1.2 1.1 1.8 1.6 14 .5 13.4-1.3-.8-2.4 4.8-1.6 8.3.4 1.8.1 3.4-.7 4.3-3.3 3.6-4.9 8.5-2.5 7.5.7-.3 1.3.3 1.3 1.3s-.4 1.6-.8 1.4c-.4-.3-.8 1.1-.8 3 0 2.3.5 3.6 1.3 3.6 1.7 0 1.5 3.3-.4 5.6-1.2 1.6-1.2 1.7.4 1.1.9-.3 1.7-.2 1.7.2 0 .5-.6 1.1-1.2 1.4-.9.3-.7 1 .7 2.1 1.5 1.2 1.6 1.6.5 1.6-1.2.1-1.2.3.2 1.4 1 .7 1.5 1.6 1.1 1.9-.3.4-.1.7.6.7s1.1.6.8 1.4c-.3.8-.2 1.6.3 1.8.4.2 1 1.2 1.2 2.3.1 1.1.8 2.4 1.4 3 .7.5 1.4 4.1 1.8 7.9.3 3.7 1 7.4 1.6 8.1.5.7 1.2 4.5 1.5 8.5.3 4 .8 7.7 1.1 8.1.2.4-.2 2.4-1.1 4.4-1.3 3.3-1.3 3.8 0 5.2 1.6 1.5 1.1 3.8-.6 2.8-.5-.4-.9-.1-.9.4 0 .6.5 1.1 1 1.1.6 0 1 .8 1 1.7-.1 1.7-.1 1.7-1.1.1-.6-1.1-1.6-1.5-2.7-1.1-1.5.6-1.5.5-.3-1 .7-.9 1.1-1.8.7-1.8-.3-.1-1-.2-1.6-.3-1.5-.2-3.6-3.6-5.4-8.8-.8-2.6-2.3-5.6-3.3-6.7-.9-1.1-1.8-2.8-1.9-3.8-.2-1-1.2-5.6-2.4-10.3-1.1-4.7-2.3-12.3-2.5-17-.5-7.5-.3-8.8 1.6-11.5 1.3-1.8 1.8-2.2 1.4-1-1.1 3.2-1.1 3.3 0 3.4.6.1 1.1-1 1.3-2.4.2-1.4.7-2.5 1.1-2.5.3 0 .7-.8.7-1.9 0-1.2-.6-1.7-1.8-1.3-1.7.4-2.4-1.2-1.9-4.1.1-.4-.6-1.5-1.4-2.3-.8-.9-1.2-2-.9-2.6.4-.6-.1-.8-1.5-.3-1.9.6-2 .3-1.4-2.6.5-2.6.3-3-.8-2.3-1 .6-.9 0 .4-1.9 2-3.1 2.3-4.9.3-2.1-.8 1-1.8 1.5-2.2 1.1-.5-.4-.2-1.2.5-1.6.8-.5.9-1.1.3-1.5-.5-.3-1.3-2.6-1.6-5.1-.4-2.5-1.1-4.5-1.6-4.5-.4 0-.7-1.2-.5-2.6.1-1.4-.3-3.1-.9-3.7-1.6-1.7-9.6-17.9-9.6-19.5 0-.6-.5-1.2-1.1-1.2-.5 0-.8-.4-.5-.9.3-.4-.1-1.6-.8-2.7-.8-1-1.2-2.4-.9-3 .2-.7 0-1.5-.6-1.8-.6-.4-.8-1.3-.5-2 .3-.7-.2-1.9-1.1-2.6-.8-.7-1.5-2.5-1.5-4s-.7-3.3-1.5-4c-.8-.7-1.2-1.6-.9-2.1.3-.5-.2-.6-1-.3-1 .4-1.7-.2-2.2-2-.3-1.4-1-2.3-1.5-2-.5.3-.9 0-.9-.6s-.4-.8-1-.5c-.6.3-1 .1-1-.5 0-.8-.6-.8-2 0s-2 .8-2 0c0-.6-1-2.1-2.1-3.3-1.9-2-2.1-2-1.2-.2.9 1.9.9 3.3.2 8.5-.2 1.4 0 3.1.5 3.8.9 1.5 1 12.8.1 14.2-.3.6-.2 1 .3 1 1.1 0 1.2 3.3 0 4.1-.4.3-1 4.2-1.3 8.7-.2 4.5-.6 8.6-.9 9-.2.4-1.6 6.5-3.1 13.7-1.5 7.1-3.1 14-3.6 15.2-.5 1.3-.6 2.3-.3 2.3.4 0 .2.6-.4 1.3-.6.7-1.3 2.4-1.5 3.7-.2 1.4-.7 3.2-1 4-.4.8-1.8 5.5-3.3 10.5-1.4 4.9-2.9 10.1-3.4 11.5-3.8 11.6-10 32.8-10.6 35.8-1 5.9-8.3 26.9-11.1 32-16.7 30.6-24.1 39.6-64.2 78.7-7.9 7.7-15.4 15.7-16.8 17.8-4.1 6.4-18.5 20-27.6 26-4.8 3.1-9.3 5.7-10 5.7-.7 0-2.7 1.3-4.5 3-1.8 1.6-3.5 3-3.7 3H411c-.5 0-.6.7-.3 1.7.4 1 .2 1.4-.4 1-.6-.4-1.6.6-2.2 2.4-.6 1.7-1.5 2.8-2.1 2.4-.6-.4-.7.1-.3 1.1.4 1.1.2 1.5-.4 1.1-.6-.4-1.8.2-2.8 1.3-1 1.1-1.4 2-1 2 .4 0-.5 1.2-2.1 2.7-1.6 1.5-3.2 2.6-3.6 2.5-.5-.1-.8.2-.8.7 0 1.6-10.6 8.6-14.5 9.7-.5.1-2.8 1-5 2s-4.4 1.8-4.9 1.8c-.5.1-1.1 1.3-1.3 2.7-.3 2.3 0 2.6 2.9 2.7 7.3.2 16.3 1.5 16.9 2.4.4.6 1.1.8 1.7.4.6-.3 1.3-.2 1.6.2.7 1.2 5.3.7 7.1-.8.8-.7 1.5-.9 1.5-.4s.5.1 1.1-.9c.6-.9 1.4-1.5 1.8-1.3.4.3 3.3-1.5 6.6-3.9 3.2-2.4 6.2-4.2 6.7-3.9.4.3.8 0 .8-.7s.3-.9.6-.6c.4.4 1.9-.1 3.5-1 2.3-1.4 3-1.4 4.4-.3 1.3 1.1 1.4 1 .9-.5-.5-1.2-.4-1.6.3-1.2 2.2 1.4 2.5 5.9.4 8.1-1.1 1.1-2.7 4.1-3.7 6.6s-3.6 6.4-6 8.7c-2.3 2.2-4.9 5.4-5.9 7-3 4.9-16 9.5-18.9 6.5-.9-.8-11.6-1.1-11.1-.2.4.7-15.2.3-22-.5-9.5-1.2-23.3-1.1-24.6.3-1 .9-1 1.5-.1 2.4 1 1 1.5 1 2.2-.2.7-1 1-1.1 1-.3 0 1 9.2 1.3 42.5 1.3 23.4 0 42.5-.3 42.5-.8-.1-1.5-5-6.2-6.5-6.2-.8 0-1.5-.7-1.5-1.6 0-1.1.6-1.5 2-1.1 1.4.3 2 0 2-1.1 0-.8.3-1.2.6-.9.4.4 1.9-.6 3.3-2.2 2.3-2.6 5.5-4 10.1-4.7.8-.1 3.4-.5 5.7-.9 3.9-.7 4.2-.6 5.8 2.5 1.7 3.2 1.3 9-.6 9-.6 0-.7.5-.4 1 .3.6-.9 2.4-2.7 4l-3.2 3h203v-9.5c-.1-5.2-.3-9.5-.6-9.5-.6 0-.6 0-1.4-13.1-.3-5.3-.9-10.7-1.4-12-.5-1.3-1.3-4.9-1.7-7.9-.4-3-1.4-7.7-2.2-10.3-.9-2.8-1.3-6.3-1-8.4 1-5.8 7-10.3 13.7-10.3 1.6 0 5.8-.9 9.3-2.1l6.4-2.1-.6-4.1c-.9-6.7-.7-54 .3-56.2 1.4-3.1 1.6-4.4 2.1-12.3.3-4 .7-7.8 1.1-8.4.6-1 1.6-9.4 1.6-13.5 0-1.3.5-2 1-1.7.6.4.6-.1 0-1.3-1.3-2.3-.9-6.7.7-8.6.6-.8.8-1.7.4-2-.3-.4.1-.7 1.1-.7.9 0 1.4-.5 1.1-1-.4-.6-.3-1 .2-.9.4.1 1 .1 1.3-.1 2.2-.8 6.1-.7 6.6.2.4.6.2.8-.3.5-.6-.4-1.9.1-3 1.1-1 .9-1.4 1.4-.8 1.1 1.2-.8 8.5 2.2 8.5 3.5 0 .5.7 1.7 1.5 2.6.8.9 1.6 2.5 1.8 3.6.1 1 .6 2.5 1.1 3.2.4.7.5 1.6.2 1.9-.3.4.3 1.3 1.4 2 1.4 1 2 2.5 2 4.6 0 5.3.2 7.1 1.2 8.4.5.7.7 1.6.4 2.1-.3.5-.2 3.2.3 6 .5 3.1.4 5.2-.1 5.2s-.7.4-.4.9c1.1 1.7.5 21.6-.8 29.6-.4 2.2-.8 8-1.1 13-.2 4.9-.7 11.7-1.1 15-.3 3.3-.7 7.3-.9 9-.2 1.6-.3 3.3-.4 3.7-.1.5-1.8.6-3.8.3-3-.4-3.3-.3-1.6.5 5.3 2.2 25.7 16.7 30.8 21.8l5.5 5.5V446.5c0-188.8-.2-222.6-1.4-221-1.3 1.8-1.4 1.8-2.4-.1-.6-1.1-.7-2.6-.2-3.4.5-.8.4-3.5-.2-6-.5-2.5-1.1-5.7-1.1-7.2-.1-1.4-.5-2.4-.8-2.2-.8.5-2.3-2.6-2-4.3.2-1.5-1.6-2.6-2.9-1.8-.6.4-.5 1.3.2 2.5 1 1.5.9 2.3-.5 3.8-1 1.1-1.5 2.6-1.2 3.4.4.9-.1 1.8-.9 2.1-.9.4-1.6 1.8-1.6 3.2 0 1.4-.4 2.5-.8 2.5-.8 0-1.3 4.6-1.2 11.2 0 7.7-.3 9.5-1.7 12.6-.9 1.9-1.8 4.4-1.9 5.6-1 8.5-1.5 13.4-2 22.6-.9 15.4-.9 15.5-3 17.6-1.3 1.3-3.1 1.9-5.7 1.7-3-.1-3.6.2-2.7 1.2.6.7.8 2 .4 2.9-.7 1.8-2.4 2.2-2.4.6 0-.6.5-1 1-1 .6 0 1-.5 1-1 0-1.9-1.5-1-3.9 2.3-1.4 1.9-2.1 2.4-1.7 1.2.6-1.8.5-1.9-.7-.3-1.6 2-2.9 1.4-2-.8.3-.8-.1-2.2-.9-3.2-2.5-2.9-3-4.2-1.5-3.6 1 .3 1.4-.4 1.5-2.6.1-3.5-1.1-3.9-2.6-.8l-1.1 2.3-.2-2.5c-.1-1.4-.1-2.9 0-3.4s-.5-1.6-1.3-2.5c-1.2-1.3-1.6-4.5-1.8-12.7-.1-7.6-.7-12.4-2-15.9-1-2.7-1.8-5.1-1.8-5.3 0-.2-.5 0-1 .3-.6.3-1.4-.5-2-1.9-.5-1.4-1.2-2.6-1.5-2.6-.4 0-.3.6 0 1.2.4.7-.1.4-.9-.6-.9-1.1-1.6-2.4-1.6-2.9s-1.1-2.2-2.5-3.9c-1.4-1.6-2.5-3.8-2.5-4.8 0-2.4 3.6-4.6 4.3-2.7.4.8.6.7.6-.3 0-.8-.4-2.2-.9-3-.5-.8-1-1-1-.4 0 .7-.8 1.4-1.8 1.6-1.5.4-1.8.1-1.4-1.7.2-1.3-.1-2.6-.7-2.9-.6-.4-1.1-1.2-1.1-1.7 0-.6.4-.8.9-.5.5.4 1.2 0 1.5-.6.2-.7.4-.2.3 1.2-.1 1.6.3 2.5 1.3 2.5.8 0 2.1.4 2.9.9.8.5.7-.1-.4-1.8-1.7-2.5-1.7-2.6.1-1.9 1.7.6 1.7.5.5-1-.7-.9-1-1.7-.6-1.7s-1.4-2.1-3.9-4.7c-2.5-2.5-4.6-5.5-4.6-6.6 0-1.2-.5-1.7-1.4-1.4-1 .4-1.3-.5-1.1-3.6.1-2.3-.3-4.5-.9-4.9-.7-.5-.4-.8.7-.8 1.5 0 1.3-.4-1-2.4-2.2-1.9-3.1-2.2-4.2-1.3-1.1 1-1.3.9-.9-.3.2-.8-.7-2.4-2-3.5l-2.5-2.2h4.7c3.1-.1 4.9.4 5.3 1.3.3.9 1.1 1 2.8.4 1.6-.6 2.9-.4 4.4.6 2 1.4 2 1.4 1.5-1.8-.4-1.8-1.3-3.8-2-4.4-2.1-1.7-1.7-3.3.6-2.7 1.5.4 1.9.2 1.4-1-.3-1 .2-1.8 1.5-2.2 1.3-.4 2.1-1.5 2.1-2.8 0-2.3-4.6-8-6.9-8.5-.7-.1-2.4-1.4-3.9-2.8-1.5-1.5-2.1-2.3-1.4-2 .8.5 1.2 0 1.2-1.3 0-1.2.6-2.2 1.3-2.2 2.7-.3 3.3-.4 5-1.5 1-.5 2.1-2.3 2.5-3.9.5-1.6 1.4-3.1 2.2-3.3.9-.3 1.1.1.7 1.1-.3.9-.2 1.9.3 2.2.6.4 1-.5 1-1.9 0-1.3.6-2.7 1.3-2.9.7-.3.5-.6-.5-.6-2.4-.1-2.3-2.1.1-2.1 1.7 0 2.1-2.3 1.2-7.1-.2-1.1-4.1-1.8-4.1-.8 0 .5.8.9 1.8 1 1 0 .6.5-1.2 1.1-2.4.9-3.1.7-4.9-1-1.7-1.7-1.8-2.3-.7-3.6.8-1.1.9-1.6.1-1.6-.6 0-1.1-.5-1.1-1 0-1.8 3.5-1 6.4 1.5 1.6 1.4 3.6 2.5 4.5 2.5 1.3 0 1.3-.2.2-.9-.7-.5-1.1-1.4-.7-1.9.4-.6-.6-1.8-2.1-2.6-2.1-1.1-2.3-1.5-1-1.6 2.9 0 1.9-5.4-1-5.8-1.5-.2-2.3-1-2.3-2.2 0-1-.5-2.2-1.2-2.6-.6-.4-.8-.3-.4.4.3.6-.7.4-2.4-.4-3.9-2-8.2-2.4-9.9-1-.8.6-1.2.6-.9.1.4-.6-1-1.1-3.3-1.2-2.1 0-3.9.3-3.9.9 0 .5.5.6 1.2.2.7-.4.8-.3.4.5-.6.9-1.1.9-2.2 0s-1.8-.9-2.6-.1c-1.7 1.7-2.8 1.5-2.3-.6.3-.9-.2-.2-1 1.5-1.8 3.9-4 4.5-3.1.9.4-1.5.1-2.6-.7-2.9-.6-.2.4-.9 2.3-1.4 2.5-.7 3.5-1.5 3.3-2.9-.1-1 .3-2.2.9-2.5.7-.4.7-.9-.1-1.3-.6-.4-1.1-.3-1.1.3 0 1-3.3.9-6-.3-2.3-.9-10.9-1.3-10.4-.4.3.5-.2.8-1 .8-.9 0-1.6-.7-1.6-1.5s-.4-1.5-1-1.5c-1.9 0-1-3.2 1-3.7 1.1-.3 2-.9 2-1.3 0-.5.9-1.2 2-1.5 2.9-.9 2.4-2-1-2.2-1.8-.1-2.8.2-2.5.7.4.6.1 1-.4 1-.6 0-1.1-.9-1.1-2s.7-2 1.5-2c.9 0 1.5-.9 1.5-2.3s1.2-3.2 3-4.5c1.6-1.3 3-2.8 3-3.4 0-.6.8-1.7 1.8-2.5 1.2-1 1.4-1.6.5-1.9-.7-.3-1.3-1-1.3-1.5 0-.6.4-.8.9-.4.6.3 1.4-.3 2-1.2.7-1.4.5-2.1-1.2-3-1.9-1-1.9-1.2-.4-1.3 1.8 0 6.7-2.7 7.8-4.3.4-.5.4-1.8.2-2.8-.3-1.1 0-1.9.6-1.9.7 0 .9-.5.6-1-.4-.6-.1-1.7.5-2.5 2.1-2.5.4-4.6-3-4-2.1.4-2.9.2-2.8-.7.2-.8-.8-1.3-2.5-1.3-3.1.1-3.1-1.5.1-3 1.2-.5 2-1.4 1.9-2-.2-.5.4-2.1 1.4-3.4 1-1.3 1.6-2.7 1.3-3.2-.3-.5 0-.8.6-.7.7.2 1.7-.4 2.3-1.3.8-1.3.7-2.3-.6-4.3-1.8-2.6-4.7-3.6-4.7-1.5 0 .6-.7.8-1.5.5-.9-.3-1.8.1-2.1.9-.3.7-1.2 1.1-2.1.8-1.2-.5-1.4-.1-.8 1.8.4 1.3.7 2.6.7 2.9 0 2.2-.4 3-1.6 3-.8 0-1.6.6-1.9 1.2-.4 1.2-3.7-8.7-3.7-11 0-1.8-4.3-2.1-6.4-.5-1.3 1-1.5 1.3-.5 1 1.4-.4 1.7.3 1.7 4 .1 2.5.4 5.4.7 6.4.4 1.1.2 1.9-.4 1.9-.6 0-1.1-.8-1.1-1.8 0-2.6-2.7-9.6-3.2-8.6-.6 1.1-.2 8.9.5 10.1.3.5.2 2.4-.3 4.3-.6 2.7-.9 3-1 1.2-.3-2.7-.4-3-1.9-6.7-.8-2-.9-3.1-.2-3.3.6-.2.8-.8.5-1.4-.3-.5-.6-2.5-.6-4.4 0-1.9-.4-3.7-.9-4-.5-.3-.9-1.9-.9-3.5 0-1.7-.7-4.3-1.5-5.9-.9-1.7-1.5-3.2-1.5-3.5.1-2.3-.2-2.5-2.1-1.1-2.2 1.5-6 6.4-4.1 5.2 1.1-.7 1.6.7 1.5 4.1-.1.7.3 1.3.8 1.3 1.2 0 1.1 2.7-.1 3.2-.6.2-.5 1.9.2 4.6.7 3 1.5 4.1 2.4 3.8 1.7-.6 1.7-.1.4 2.5-1.3 2.2-3 2.5-3 .5 0-.8-.8-2.1-1.9-2.8-1-.7-2.1-2.2-2.4-3.3-.3-1.5-.5-1.4-.6.7 0 1.6.4 2.8.9 2.8.6 0 1 1.4 1 3.1 0 2-.4 2.8-1.2 2.3-.7-.4-.8-.3-.4.4.4.6 1.3.9 2.1.6.9-.4 1.2 0 .9 1.3-.4 1.2.7 3.3 3 5.8 4.7 5.1 4.6 5.6-.4 1.1-4.9-4.5-6.4-4.6-5.5-.6.9 4.2-.6 19.4-1.6 16-.4-1.4-.7-4.4-.8-6.8-.1-2.5-.5-4.1-1.1-3.7-.6.4-.8 8.9-.5 22.6.3 12.7.1 21.8-.4 21.5-.5-.3-.9 1.9-1 5 0 6.2-.5 7.4-2.4 5.5-.7-.7-1.3-4.4-1.4-8.9-.2-8.7-1.1-12.2-2.4-10-.6.9-.9.7-.9-.9 0-1.2.5-2.5 1-2.8 1.3-.8.2-15.4-1.2-17.2-.5-.7-.6-3.2-.2-6 .5-2.6.7-6.3.6-8.1-.1-1.8.2-3.1.6-2.8.8.5.7-3.8-.3-12.9-.4-3.7-.3-4.6.5-3.5.8 1.1.9.8.4-1.3-.3-1.5-.2-2.7.3-2.7 1.5 0 4.6-7.2 5-11.8.2-2.3.1-4.2-.2-4.2-.8 0-2.5 4.7-3.1 8.9-.3 2-.9 4-1.4 4.4-.4.5-.3-1.3.2-4 .5-2.6 1.1-6.4 1.3-8.4.3-2 .9-4.8 1.5-6.3 1.1-3.1.6-4.6-1.5-4.6-.8 0-1.9-.8-2.4-1.9-1.1-2-8.1-6.6-8.1-5.3 0 .5.7 1.7 1.5 2.8.8 1 1.4 2.8 1.5 3.9 0 1.7-.2 1.7-1.3-.5-.7-1.4-2.1-2.6-3.1-2.8-1.6-.3-1.6-.2-.3 2 .8 1.2 1.7 3.6 2.1 5.3.6 2.7.5 2.8-.7 1.2-2.5-3-3.7-2-3.2 2.5.2 2.4.7 7.4 1 11.3.3 3.8.8 7.8 1.1 8.9.4 1.1.2 1.6-.4 1.2-.6-.4-1.4-2.8-1.8-5.4-1-7.3-2.3-8.5-2.4-2.2 0 3.9-.3 5.1-1 4-.5-.8-1-3.4-1-5.8 0-2.3-.4-4.2-1-4.2-.5 0-1 .8-1 1.7 0 1.5-.2 1.6-1 .3s-1-1.3-1 .2c0 .9.5 2 1 2.3.6.3 1 1.9 1 3.6 0 1.6.5 2.9 1 2.9.6 0 1 .8 1 1.8s-.7 1.9-1.5 1.9c-1 0-1.5-1-1.5-2.9 0-4.1-2.5-3.5-2.7.7-.1 1.9.3 3.5.8 3.5s.9.9.9 2 .5 2 1 2c.6 0 1 1 1 2.2 0 2-.3 1.8-1.6-.9-2.1-4.2-3.4-3.4-2.3 1.4 1.6 6.6 2.2 18 .9 16.7-.6-.6-1.3-4.2-1.5-8-.2-3.8-.9-8.5-1.5-10.4-.7-1.9-1.4-9.6-1.6-17-.3-7.4-.7-14.1-.9-14.8-.8-2.4-2.4-.2-2 2.6.9 5.5 1.3 20.7.5 18.7-.5-1.1-.9-3.4-.9-5-.2-4.1-1.2-7.6-2.1-7-.8.5-2.5-13.5-2.1-16.7.4-3.4-1.8-5.8-5.4-5.8-2.6 0-3.5.4-3.5 1.7 0 1.5-.2 1.4-1.6-.3-1.4-1.7-1.5-1.7-1-.1.3 1 .6 2.6.6 3.5 0 1.3.2 1.4.9.4.5-.9 1 .1 1.4 3 .3 2.4.9 5.3 1.2 6.3.6 1.7.5 1.8-.5.5-.9-1.2-1-.9-.5 1.5.4 1.8.3 2.6-.3 2-.5-.6-1.5-4.4-2.2-8.5-1.8-10.5-1.3-10-8.4-9.9l-6.3.1.7 3.7c.3 2 1.1 3.5 1.7 3.4.7-.1 1.4 1.1 1.8 2.7.4 1.7 1.1 3 1.6 3 .6 0 .9 1.9.8 4.2-.3 5.2.8 9.1 2.3 8.2.7-.5.9 0 .6 1.4-.4 1.2-.2 2.2.3 2.2s.9.4.9 1c0 1.7-2.8 1.1-3.4-.8-.3-.9-.2.3.1 2.7.3 2.8.2 4.1-.5 3.7-.5-.3-1.3-3.2-1.7-6.3-.4-3.2-1.3-7-2.1-8.5-.8-1.6-1-2.8-.5-2.8s1.2.6 1.5 1.2c.3.7.2-.7-.1-3.2-.3-2.5-1-5.2-1.4-6-.6-.9-.6.3-.3 3 .5 3.1.3 4.2-.4 3.5-.5-.6-1.3-4.1-1.7-8-.8-7.8-1-8.5-3.1-8.5-1.4 0-1.3 2.3.3 7 .2.8.7 4 1 7 .2 3 .9 6 1.4 6.6 1.3 1.6 2.1 13.4.8 13.4-.6 0-.7-.5-.4-1 .3-.6.2-1-.4-1-.6 0-1.3-1.7-1.6-3.8-.3-2-1.1-6.4-1.8-9.7-.7-3.3-1.1-7.4-.9-9 .2-2.3 0-2.7-.7-1.5-1.3 1.9-1.3 1.3-.2-2.8.8-2.5.7-3.2-.4-3.2-.7 0-1.6-.6-1.8-1.3-.4-.9-.8-.8-1.6.3-.7 1-1.1 1.1-1.1.2 0-.6-1.1-1.2-2.5-1.2s-2.5.3-2.5.8c0 .4 1.3 5 3 10.2 3.1 9.9 3.6 13 2.1 13-.5 0-1.2-1.9-1.6-4.3-.4-2.3-1.2-4.7-1.7-5.4-.5-.7-.7-1.7-.3-2.3.3-.5.2-1-.3-1-1.1 0-3.3-5.6-2.5-6.3.2-.3-.4-1.5-1.4-2.6-1.9-2.3-6.8-2.8-7.6-.9-.4 1-.6 1-.6 0-.1-.6-1-1.2-2.1-1.2-2.3 0-2.5 1.5-.6 4.9.8 1.4 1.2 3 .9 3.7-.2.6.3 2.9 1.1 5 1.6 3.8 1.6 3.8-.2 1.6-.9-1.2-2.6-5.2-3.6-8.7L483.8 0h-3.9c-3 0-3.7.3-3.3 1.5.4.8 1 1.3 1.4 1 1.1-.7 2.1 3.9 1.4 6.2-.5 1.5-.4 1.5.5.3 1.2-1.6 1.2-1.6 1.6 1.7.1 1.3-.2 2-.8 1.6-.6-.4-.8 0-.4 1 .3 1 .2 1.7-.3 1.7-.4 0-1.2-1.5-1.5-3.3-.4-1.7-1.1-3.4-1.4-3.7-.4-.3-1.7-2.2-3-4.3-2-3.3-2.7-3.7-6.2-3.7-4.5 0-4.5.1-2.1 3.8 4.8 7 8.5 13.9 8.4 15.5 0 .9.3 1.5.7 1.3.4-.3 1.6.9 2.6 2.7 1.2 2 2 2.6 2.3 1.8.3-1 1-.7 2.3 1l1.9 2.4-.9-3c-.5-1.7-1.4-4.2-2-5.8-1.8-4.5-.3-3 2 2 3.5 7.6 6.9 18.5 6.2 19.6-.3.5-.2.7.4.4 1.3-.8 4.5 6.2 4.9 11 .5 4.9 1.7 11.6 4.3 22.6 2.4 9.8 2.8 16.2.5 7.7-1.7-6.6-3.4-10.1-4.6-9.4-.4.3-.8-.6-.8-1.9 0-1.3-.7-3.8-1.6-5.5-.8-1.7-1.6-4.1-1.7-5.2-.1-1.1-.4-2-.7-2-.4 0-1.4-1.6-2.3-3.5-1.6-3.3-1.6-3.5.6-5.1 2-1.5 2.1-1.5.2-1-1.6.5-2.1.1-2.2-1.6-.1-1.1.2-2.9.7-3.9 1-1.8-.3-2.1-2.7-.6-.7.5-1.7-.1-2.4-1.5-.6-1.3-2-3.1-2.9-4-1.6-1.5-1.9-1.5-2.4-.2-.3.8-.2 1.2.4.9 1.1-.7 6.1 6.5 5.4 7.7-.6.9-5.8-5.6-11.1-13.9-1.9-2.9-3.8-5.1-4.3-4.8-.5.3-1.2 0-1.6-.6-.4-.8-.3-.9.4-.5 2.1 1.3 1.3-.6-2.6-5.8-2-2.8-4.2-6-4.8-7-.6-1.1-1.6-2.2-2.3-2.4-1-.3-1.1 0-.1 1.9 1.5 3-3.7-2.8-8.1-8.9-3-4.2-3-4.2-9.3-4.2-6.8 0-8.2.6-6.5 2.7.8.9.8 1.3.1 1.3-.6 0-1.6-.9-2.2-2-1.1-2-1.9-2-177.5-2H76.1l-4.3 2.9c-2.4 1.6-5.3 4.3-6.6 6-1.2 1.7-2.6 3.1-3.1 3.1-.4 0-2.5 1.6-4.5 3.5-2.1 1.9-4.7 3.5-5.8 3.5-1.6 0-.2-2 6.5-9.3C66.2 1.1 66.6.4 64 .8c-1.6.2-3.5 1.1-4.2 2-1.1 1.3-1.1 1.4.2.7 1.2-.6 1.3-.5.3.5-.7.8-1.9 1.5-2.7 1.6-1.9.3-6.6 3.5-6.6 4.5 0 .5-.4.9-1 .9-1.8 0-1.1-1.9 2.1-5.5 1.8-2 3-3.8 2.7-4-.3-.3-1.3.4-2.3 1.5-1 1.1-2.4 2-3.1 2-.7 0-1.8.9-2.4 2-.6 1.1-2 2.4-3.1 3.1-2 1-2 .8-1.8-4.3l.3-5.3L21.2.2 0 0v360zM524.5 5.9c0 2.2-.3 3.7-.7 3.4-.5-.2-.8-2-.8-3.9s.3-3.4.8-3.4c.4 0 .7 1.8.7 3.9zM508.8 10v2.5L508 10c-.4-1.4-.8-3.4-.8-4.5l-.1-2 .9 2c.5 1.1.8 3.1.8 4.5zM87 5.3c0 .8-9.2 6.9-9.6 6.4-.6-.5 7.5-6.7 8.8-6.7.4 0 .8.1.8.3zm349.1 3.4c1.3 2.1 2.7 4.4 3.2 5 .4.7.4 1.3-.1 1.3-.9 0-6.2-7.7-6.2-9.1 0-1.6.8-.9 3.1 2.8zM51.9 14.6c-4 4-7.5 7.1-7.8 6.8-.4-.3 2.6-3.6 6.4-7.2 3.9-3.7 6.9-7 6.7-7.5-.1-.5.3-.5.9-.2.7.5-1.6 3.5-6.2 8.1zm476.8-5.4c-.3.8-.6.5-.6-.6-.1-1.1.2-1.7.5-1.3.3.3.4 1.2.1 1.9zm-4 5c-.3.7-.5.2-.5-1.2s.2-1.9.5-1.3c.2.7.2 1.9 0 2.5zm46 1c-.3.8-.6.5-.6-.6-.1-1.1.2-1.7.5-1.3.3.3.4 1.2.1 1.9zM485 18.3c0 1.6-1.8-.3-2.3-2.5-.6-2.2-.5-2.2.8-.4.8 1.1 1.5 2.4 1.5 2.9zm53.9 1.5c.1.7-.3 1-.9.7-.5-.3-1-1.8-.9-3.3 0-2.4.1-2.5.9-.7.5 1.1.9 2.6.9 3.3zm-88.9.1c0 .3 1.4 2.2 3.1 4.1 1.6 1.9 3.7 4.8 4.6 6.5.9 1.6 1.9 3.2 2.2 3.5 1 .8 4.1 9.1 3.1 8.5-.4-.2-1.5-2.1-2.5-4.1-.9-2-3.6-6.2-5.9-9.3-6.4-8.6-7.9-11.2-6.1-10.5.8.4 1.5.9 1.5 1.3zm28.7.3c-.3.8-.6.5-.6-.6-.1-1.1.2-1.7.5-1.3.3.3.4 1.2.1 1.9zM59.5 20c-.3.5-1.6 1.5-2.8 2.1-2.2 1.2-2.2 1.2-.3-1 1.9-2.1 4.3-3 3.1-1.1zm432.1 11.7c-.5.6-6.6-9.7-6.6-11.1 0-.6 1.6 1.6 3.5 4.9 2 3.2 3.3 6 3.1 6.2zm44.1-9.5c-.3.8-.6.5-.6-.6-.1-1.1.2-1.7.5-1.3.3.3.4 1.2.1 1.9zm-46 1c-.3.8-.6.5-.6-.6-.1-1.1.2-1.7.5-1.3.3.3.4 1.2.1 1.9zm-431.3.9c-1 1.2-3.2 2.8-4.9 3.7-2.9 1.4-2.9 1.4-1.5-.3 1.3-1.6 6.9-5.5 7.9-5.5.2 0-.4.9-1.5 2.1zm435.8 4.2c1.8 4.2 1.8 4.2-.2 1.7-2-2.7-3.2-6-2.2-6 .4 0 1.5 1.9 2.4 4.3zm14.1-.8c-.7 2.1-1.3 1.9-1.3-.6 0-1.1.4-1.8 1-1.4.5.3.7 1.2.3 2zm24 7.7c.3 2.1.2 3.8-.4 3.8-.5 0-.9-.6-.9-1.3-.1-.6-.3-3.9-.5-7.2-.4-4.7-.3-5.3.4-2.5.5 1.9 1.1 5.2 1.4 7.2zm-35.9-7.6c.3.8.2 1.2-.4.9-.6-.3-1-1-1-1.6 0-1.4.7-1.1 1.4.7zM62 29.5c-1.3 1.4-2.5 2.3-2.8 2.1-.5-.6 3.1-4.4 4.2-4.5.5-.1-.1 1-1.4 2.4zm15-2.1c0 .2-.8 1-1.7 1.7-1.6 1.3-1.7 1.2-.4-.4 1.3-1.6 2.1-2.1 2.1-1.3zm461 3.1c0 .5-.5.3-1-.5s-1-2-1-2.5c0-.6.5-.3 1 .5s1 1.9 1 2.5zm-27 .5c0 .5-.4 1-.9 1-.6 0-1.3-.5-1.6-1-.3-.6.1-1 .9-1 .9 0 1.6.4 1.6 1zm86.2 3.7c.5.7.5 1.3 0 1.7-1.5.9-2.2-.5-2.1-3.8.1-2.1.3-2.5.6-1.1.3 1.1.9 2.5 1.5 3.2zm-68.3 4.7c0 .6-.7-.3-1.4-1.9-1.8-3.9-1.8-1.1 0 3.9.8 2.2 1.2 4.3.9 4.8-.3.4-.1.8.4.8 1.2 0 3 4.4 3.5 8.5.2 1.6 1.2 4.8 2.1 7 1.9 4.1 3.7 18.3 2.5 19.1-1 .6-2.1-6.3-1.4-8.6.4-1.2-.1-2.8-1.4-4.1l-2.1-2.2.4 7.6c.2 4.2-.1 7.4-.5 7.1-.5-.3-.9-1.2-.9-2s-.5-1.4-1.1-1.4c-.7 0-.9-1-.5-2.8.4-1.7.3-2.2-.2-1.3-.6.7-1.2.9-1.5.4-.9-1.4-2.8-9.2-3.4-13.6-.3-2-.8-3.7-1.2-3.7-.4 0-.8-1.2-.8-2.8 0-1.5-.2-3.3-.4-4.1-.2-.7.1-1.5.6-1.7.6-.2 2 3 3.3 7 1.3 4.1 3 8 3.9 8.8 1.5 1.1 1.6 1.1.9-.7-.5-1.1-1.1-2.9-1.4-4-.3-1.1-1.1-2.6-1.9-3.3-.8-.9-1.1-2.7-.6-5.7.4-2.9.2-4.5-.5-4.5-.6 0-.9-.9-.7-2 .2-1.1 0-2.2-.5-2.5-1-.6-.6-6.8.6-8.7.7-1.1 3.5 4.4 3.3 6.6zM513 36.9c0 .6.5 1.1 1.2 1.1.9 0 .9.3 0 1.2-.7.7-1.2 1.7-1.2 2.2 0 .6.4.4 1-.4.5-.8 1.2-1.1 1.5-.8.4.4.3 1.3-.1 2-.5.7-.7 2.4-.5 3.8.3 2.5-.8 2.4-1.3-.2-.2-.7-.6-2-.9-2.8-.3-.8-.8-2.7-1.1-4.2-.3-1.4-.9-3.4-1.3-4.5-.6-1.7-.6-1.7 1-.1.9.9 1.7 2.1 1.7 2.7zM75 35.3c0 .2-1.2 1.4-2.7 2.8-2.4 2.2-2.4 1.3 0-1.9.8-1.1 2.7-1.7 2.7-.9zm444.2 4.1c-.3.5-.9.1-1.2-1-.4-1-.5-2.3-.2-2.8s.9-.1 1.2 1c.4 1 .5 2.3.2 2.8zM49.1 38.3c-1 .9-1.1.8-.5-.6.3-1 .9-1.5 1.2-1.2.3.3 0 1.1-.7 1.8zm473.1.2c.3 1.4.1 2.5-.4 2.5s-.6.5-.3 1c.4.6 1.1.8 1.6.5 1-.7.7 2.4-.4 4.3-.5.7-1.3 1-1.8.6-.6-.4-.5-1.1.2-2 1-1.2 1-1.5-.2-1.2-.8.2-1.3-.3-1.1-1.2.2-.8.4-2.7.4-4.2.1-3.5 1.4-3.7 2-.3zM61 37.4c0 .3-.4.8-1 1.1-.5.3-1 .1-1-.4 0-.6.5-1.1 1-1.1.6 0 1 .2 1 .4zM534 41c0 .5-.2 1-.4 1-.3 0-.8-.5-1.1-1-.3-.6-.1-1 .4-1 .6 0 1.1.4 1.1 1zm8.1 7.3c-.8.8-1.1.3-1.1-1.5 0-1.5-.2-3.5-.5-4.5s.2-.3 1 1.6c1.2 2.4 1.3 3.7.6 4.4zM54.3 44.2c-1.3 1.2-2.6 1.8-3 1.4-.4-.4.1-1.4 1.1-2.2 3.1-2.2 4.3-1.7 1.9.8zm463.5.8c.7 1.2 1 2.5.7 3-.4.6-.2 1 .3 1s1.4 1.1 2 2.5c1.5 3.2 1.5 3.5.1 3.5-.5 0-.7-.5-.4-1 .3-.6.2-1-.3-1s-1.2-.8-1.5-1.8c-.4-.9-1.3-3.2-2.1-5-1.7-3.5-.8-4.4 1.2-1.2zm18 12.2c.6 2.2.6 3.8.1 3.8s-1-.6-1-1.3c-.4-3.9-.8-5.6-2.2-9.6-.9-2.4-1.3-5.1-.9-6 .4-1 1.1.4 1.8 3.9.7 3 1.7 7.2 2.2 9.2zm-.1-9c-.3.8-.6.5-.6-.6-.1-1.1.2-1.7.5-1.3.3.3.4 1.2.1 1.9zm-480.2 0c.3.3-.7 1-2.3 1.6-2.6.9-3 .8-2.7-.6.2-1 .4-1.7.4-1.8.3-.3 4.2.3 4.6.8zm9.5.7c-1.4 2.7-1.3 3.1.6 2.4 1.4-.5 1.4-.2-.2 2.2-1.6 2.5-1.9 2.6-2.5.9-.6-1.7 1.4-7.4 2.7-7.4.2 0 0 .9-.6 1.9zm420.5.9c-.2.9-.4 2.1-.5 2.7 0 .5-.7-.1-1.4-1.5-1.6-2.8-1.2-4.2.8-3.4.8.3 1.3 1.3 1.1 2.2zm-413 1.1c-.3.6-1.1 1.1-1.7 1.1-.6 0-.6-.6.2-1.5 1.4-1.7 2.6-1.3 1.5.4zm485.2 2.3c-.3.7-.5.2-.5-1.2s.2-1.9.5-1.3c.2.7.2 1.9 0 2.5zM53 52c0 1-3.2 3-4.9 3-1.9 0-1.2-1.7 1.2-2.8 2.8-1.4 3.7-1.4 3.7-.2zm4.6 8.1c-.8 2.4-1.9 6.3-2.6 8.6-.7 2.4-1.7 4.3-2.2 4.3-.5 0-.6-.6-.2-1.3.5-.8.4-.9-.4-.2-.5.5-1.2 1.9-1.4 3-.2 1.2-1.1 1.9-2.2 1.8-1.3-.1-1.6.4-1.3 1.9.6 2.3-.1 4.8-1.4 4.8-1.5 0-1-3.9 1-8 1.1-2.2 1.7-4.9 1.4-5.9-.3-1.2.7-3.7 2.4-6.3 1.7-2.4 3.8-5.6 4.8-7.2 2.5-4.2 3.9-1.3 2.1 4.5zm462.9 5c.9 4.1 1.8 8.2 2 9.2.2.9-.1 1.5-.6 1.1-.5-.3-.9-1.5-.9-2.8 0-1.3-.8-4.7-1.8-7.7-1.1-3-2.2-7-2.5-8.9-.6-3.5-.6-3.5.8-.9.8 1.4 2.1 5.9 3 10zm37.5-8.6c0 .8-.2 1.5-.4 1.5s-.6-.7-1-1.5c-.3-.8-.1-1.5.4-1.5.6 0 1 .7 1 1.5zM49.1 59.9c-.6 1-.8 2.1-.5 2.3.2.3-.4 1.1-1.3 1.9-1.6 1.3-1.7 1.2-.4-.4.7-.9 1-1.7.7-1.7-.4 0-.2-.9.4-2 .6-1.1 1.3-2 1.6-2 .2 0 0 .8-.5 1.9zm463.2 2.6c.5 2.8.4 3.4-.3 2-.8-1.9-1.4-7.3-.6-6.4.2.2.6 2.2.9 4.4zM61.8 63c-.7 1-1.4 1.7-1.7 1.5-.4-.4 1.8-3.5 2.5-3.5.2 0-.1.9-.8 2zm-3.6 2.7c-.3 1.6-.7 2.2-1 1.5-.4-1.3.4-4.2 1.1-4.2.2 0 .2 1.2-.1 2.7zm2 6.4c-3.2 3.6-3.5 3.6-2 .1 1.9-4.3 3-5.5 3.9-4.1.4.7-.4 2.4-1.9 4zm480.2.9c.4 2 .3 3-.3 2.5-.5-.6-1.1-2.8-1.5-5-.8-4.9.8-2.6 1.8 2.5zM43.1 69.8c-1.1 2-5.1 5.8-5.1 4.8 0-.7 5.1-6.6 5.7-6.6.2 0-.1.8-.6 1.8zm2.9.5c0 .2-1 1.2-2.2 2.3l-2.3 1.9 1.9-2.3c1.8-2.1 2.6-2.7 2.6-1.9zm523.7 5.9c-.2 1.3-.4.5-.4-1.7-.1-2.2.1-3.2.4-2.3.2 1 .2 2.8 0 4zM41 76.4c0 .2-.7.9-1.5 1.6-1.3 1.1-1.4 1-.9-.4.5-1.4 2.4-2.3 2.4-1.2zM545.5 80c.3.5.1 1-.4 1-.6 0-1.1-.5-1.1-1 0-.6.2-1 .4-1 .3 0 .8.4 1.1 1zm-3.8 3.2c-.3.7-.5.2-.5-1.2s.2-1.9.5-1.3c.2.7.2 1.9 0 2.5zm-8.1 3.4c-.9 2.8-1.2 3.1-1.4 1.4-.3-1.7 1.2-5 2.3-5 .1 0-.3 1.6-.9 3.6zm5.4-.3c0 .5-.4.5-1 .2-.5-.3-1-1.4-1-2.3 0-1.5.2-1.5 1-.2.5.8 1 1.9 1 2.3zm-499.9 0c-1 .9-1.1.8-.5-.6.3-1 .9-1.5 1.2-1.2.3.3 0 1.1-.7 1.8zm503.6 5.4c-.3 1-.5.4-.5-1.2 0-1.7.2-2.4.5-1.8.2.7.2 2.1 0 3zm25 .5c-.3.8-.6.5-.6-.6-.1-1.1.2-1.7.5-1.3.3.3.4 1.2.1 1.9zm39.6-.2c-.3 1.1-.9 1.7-1.4 1.4-1.4-.8-1-3.4.5-3.4.9 0 1.2.7.9 2zm-33 3.3c.6-.5.5 1.6-.3 4.7-.2.8-3-7.4-2.9-8.5 0-.6.6.2 1.3 1.8.7 1.5 1.5 2.4 1.9 2zm-43.3.1c0 .8-.4 1.8-1 2.1-.5.3-1-.3-1-1.4 0-1.2.5-2.1 1-2.1.6 0 1 .6 1 1.4zm72 .6c0 .5-.5 1-1.1 1-.5 0-.7-.5-.4-1 .3-.6.8-1 1.1-1 .2 0 .4.4.4 1zm-61.3 4.8c.1 4.6.1 4.6-.9 1.5-.9-2.7-.6-6.3.4-6.3.2 0 .4 2.1.5 4.8zm33 2.4c-.3.8-.6.5-.6-.6-.1-1.1.2-1.7.5-1.3.3.3.4 1.2.1 1.9zm-28.7 5.2c0 .6-.7.1-1.5-1-.8-1-1.5-2.3-1.5-2.8 0-.6.7-.1 1.5 1 .8 1 1.5 2.3 1.5 2.8zm62.2-2.2c-.7.7-1.2.8-1.2.2 0-1.4 1.2-2.6 1.9-1.9.2.3-.1 1.1-.7 1.7zm-35.3 5.8c0 1.9-.4 4.2-.9 5-.6 1-.7.3-.3-2.4.4-2.4.2-3.7-.3-3.3-.6.3-.8-1-.5-3.1.3-3 .5-3.3 1.2-1.7.4 1.1.8 3.6.8 5.5zm2.8-3.8c-.3.7-.5.2-.5-1.2s.2-1.9.5-1.3c.2.7.2 1.9 0 2.5zm47.8-1.2c-.3.5-1.2 1-1.8 1-.7 0-.6-.4.3-1 1.9-1.2 2.3-1.2 1.5 0zm-46.8 10.2c-.3.7-.5.2-.5-1.2s.2-1.9.5-1.3c.2.7.2 1.9 0 2.5zm21.6-.7c-.3.8-.9 1.5-1.4 1.5-.5 0-.9.8-.9 1.7 0 1-1.1 2.3-2.4 2.9-2.2 1-2.4 1-1.3-.7.6-1 1.5-1.5 1.9-1.3.4.3.8-.4.8-1.6 0-2.3 2.1-5.1 3.2-4.4.4.3.5 1.1.1 1.9zm48.5 1c.9-.1 1.1 0 .5.2-.7.3-1.3.9-1.3 1.5 0 .5.7.8 1.5.4.8-.3 1.5-.1 1.5.4 0 .6-1.7.8-4.2.4-4.8-.8-6.2-1.4-3-1.4 1.4 0 2.2-.6 2.3-1.8 0-.9.3-1.2.5-.6.3.7 1.3 1.1 2.2.9zm6.2 3.5c.8.5 1.2 1.2.9 1.5-.8.8-3.9-.5-3.9-1.6s1.1-1.1 3 .1zm3 3.7c0 1-4.5 2.2-6.5 1.7-3.9-1-2.9-2 2-2 2.5 0 4.5.2 4.5.3zm-79.3 15.5c-.3.8-.6.5-.6-.6-.1-1.1.2-1.7.5-1.3.3.3.4 1.2.1 1.9zm81.7 1.3c-.4.8-.8 1.5-1 1.5-.2 0-.4-.7-.4-1.5s.4-1.5 1-1.5c.5 0 .7.7.4 1.5zm-34 4.1c.3.8.2 1.2-.4.9-.6-.3-1-1-1-1.6 0-1.4.7-1.1 1.4.7zM615 149c0 .5-.5 1-1.1 1-.5 0-.7-.5-.4-1 .3-.6.8-1 1.1-1 .2 0 .4.4.4 1zm6-.3c0 .8-7.3 5.3-8.6 5.3-.3 0-.1-.7.6-1.5s1.6-1.2 2.1-.9c.5.3.9.1.9-.4s1-1.4 2.3-2c2.8-1.4 2.7-1.3 2.7-.5zM467.5 158c-.3.5-1.3 1-2.1 1s-1.4-.5-1.4-1c0-.6.9-1 2.1-1 1.1 0 1.7.4 1.4 1zm43.3 5.9c.3 1 0 1-1.7.2-2.5-1.4-2.7-2-.4-1.7.9.2 1.9.8 2.1 1.5zm-5.3.1c-.3.5-1.2 1-1.8 1-.7 0-.6-.4.3-1 1.9-1.2 2.3-1.2 1.5 0zM349 165.4c0 .3-.4.8-1 1.1-.5.3-1 .1-1-.4 0-.6.5-1.1 1-1.1.6 0 1 .2 1 .4zm180 5.6c0 .5-.2 1-.4 1-.3 0-.8-.5-1.1-1-.3-.6-.1-1 .4-1 .6 0 1.1.4 1.1 1zm8.4 3.7c.5 1.3.4 1.4-.8.4-.8-.7-2-1.1-2.8-1-2.9.4-4.2-.3-1.8-1 3.1-.9 4.7-.4 5.4 1.6zm19.6 9.9c0 .2-1.7.4-3.7.3-2.9 0-3.3-.2-1.8-.8 1.8-.7 5.5-.4 5.5.5zm-8 .4c0 .5-.9 1-2 1s-2-.5-2-1c0-.6.9-1 2-1s2 .4 2 1zm161.7 26.2c-.3.8-.6.5-.6-.6-.1-1.1.2-1.7.5-1.3.3.3.4 1.2.1 1.9zM562 212.9c0 .5.7 1.7 1.6 2.5.8.9 1.3 2 .9 2.6-.9 1.5-3.4-1.2-2.7-2.9.4-1 .1-1.3-1.1-.8-1.7.6-2.3-.4-1-1.6.9-1 2.3-.8 2.3.2zm151.5 6.1c.3.5.1 1-.4 1-.6 0-1.1-.5-1.1-1 0-.6.2-1 .4-1 .3 0 .8.4 1.1 1zM577 220c0 .5-.7 1-1.6 1-.8 0-1.2-.5-.9-1 .3-.6 1-1 1.6-1 .5 0 .9.4.9 1zm13 6.6c0 .3-.6 1.2-1.4 2-1.1 1-1.7 1.1-2.2.3-.3-.6 0-1.5.7-2 1.6-1 2.9-1.2 2.9-.3zm-5.4 4c-.3.8-.1 1.4.3 1.4.5 0 .7.9.4 2-.5 1.7-.7 1.8-1.7.6-.6-.7-1.8-1.6-2.6-1.9-1.1-.4-.9-.7.8-1.3 1.5-.4 2.1-1.2 1.8-2.1-.4-.8-.1-1.1.5-.8.6.4.8 1.3.5 2.1zm134.2-1.4c-.2.6-1 1.3-1.6 1.4-.7.1-.8 0-.2-.3.5-.2.8-.9.4-1.4-.3-.5 0-.9.6-.9.7 0 1 .5.8 1.2zM208 244.7c-1.1 1.7-1.1 1.7-.6 0 .3-1 .6-2.4.7-3 0-.9.2-.9.5 0 .3.7 0 2-.6 3zm379 7.4c0 .5-.7.9-1.5.9-.9 0-1.2-.6-.9-1.5.6-1.5 2.4-1.1 2.4.6zM203 257c-.6 1.1-1.3 2-1.6 2-.2 0 0-.9.6-2s1.3-2 1.6-2c.2 0 0 .9-.6 2zm81.8 80c.3.9 0 1-.9.4-.8-.5-1.8-.9-2.3-.9-.5 0-1.1-.6-1.3-1.2-.4-1 .2-1.1 1.8-.5 1.3.5 2.5 1.5 2.7 2.2zm-7.5 3.1c.4 1.5.2 1.9-.8 1.5-.8-.3-1.6.3-1.8 1.2-.4 1.3-.5 1.3-.6-.4 0-1.1.4-2.5 1.1-3.2 1.5-1.5 1.5-1.6 2.1.9zm9.4.1c-.3.8-.6.5-.6-.6-.1-1.1.2-1.7.5-1.3.3.3.4 1.2.1 1.9zm-18 2c-.3.8-.6.5-.6-.6-.1-1.1.2-1.7.5-1.3.3.3.4 1.2.1 1.9zm12.8-1.2c.3.5.2 1-.4 1-.5 0-1.3-.5-1.6-1-.3-.6-.2-1 .4-1 .5 0 1.3.4 1.6 1zm-4.7 22.4c0 2.8.9 6.1 2.6 9.6 1.5 2.9 2.5 5.5 2.2 5.7-.7.7-7.4-2.5-11-5.2-3.1-2.4-3.3-2.8-2.6-6.1.9-3.8 3.7-7.7 5.1-6.9.4.3 1 .1 1.4-.5 1.4-2.2 2.4-.8 2.3 3.4zm30.2.6c0 .5-.9 1-2 1s-2-.5-2-1c0-.6.9-1 2-1s2 .4 2 1zm16.1 6.3c2.1 2.7 1.3 6.2-1.9 8.3-2.9 1.9-12.9 4.3-15 3.6-1.8-.6-1.5-2.7.8-4.7 1.3-1.1 1.8-2.5 1.4-3.7-.3-1.2 0-1.8 1-1.8.8 0 2-.9 2.6-2 .6-1.1 1.7-2 2.5-2s1.5-.7 1.5-1.6c0-1.5.3-1.4 2.7.2 1.5.9 3.5 2.6 4.4 3.7zM267 367c0 .5-.4 1-1 1-.5 0-1-.5-1-1 0-.6.5-1 1-1 .6 0 1 .4 1 1zm22 1.2c0 .7 1.2 2.4 2.6 3.9 3.2 3.3 2.5 4.9-2.2 4.9-2.4 0-3.6-.5-4-1.8-.3-.9-1-2.5-1.5-3.4-1.3-2.5-1.2-2.8 1.4-3.8 3.1-1.2 3.7-1.2 3.7.2zm-124.6 14.9c-4.3 13.8-9.4 27.2-10.1 26.6-.2-.3 1.2-5.2 3.2-10.9 2-5.6 5-14.3 6.7-19.1 1.7-4.8 3.2-8.6 3.4-8.4.2.2-1.3 5.5-3.2 11.8zM105.3 394c-.9 2.2-1.8 3.9-1.9 3.7-.7-.6 1.7-7.7 2.6-7.7.4 0 .1 1.8-.7 4zm47.8-1.3c-1.2 2-1.4 1.4-.5-1.2.4-.9.9-1.4 1.1-1.1.3.2 0 1.3-.6 2.3zm-51.4 2.5c-.3.8-.6.5-.6-.6-.1-1.1.2-1.7.5-1.3.3.3.4 1.2.1 1.9zm7.3 7.5c-2 6-3 8.6-3.5 8.2-.2-.3.6-3.3 1.7-6.7 1.1-3.5 2.2-6.1 2.5-5.8.3.2-.1 2.2-.7 4.3zm13.7 1.5c-.3.8-.6.5-.6-.6-.1-1.1.2-1.7.5-1.3.3.3.4 1.2.1 1.9zm-23.6 1.1c-1 .9-1.1.8-.5-.6.3-1 .9-1.5 1.2-1.2.3.3 0 1.1-.7 1.8zm45.6 13.2c-.9 1.8-1.4 4.1-1.1 5.1.2 1.1-.2 3.9-1.1 6.4l-1.4 4.5.4-7c.5-8.8 1.5-13.6 2.7-12.9.5.3.6-.7.3-2.3l-.5-2.8 1.1 2.9c.9 2.3.8 3.5-.4 6.1zm-39.1-3.9c-.4.9-.9 1.5-1.1 1.2-.3-.3-.3-1.3.1-2.2.4-.9.9-1.5 1.1-1.2.3.3.3 1.3-.1 2.2zm13.5-.3c-1 .9-1.1.8-.5-.6.3-1 .9-1.5 1.2-1.2.3.3 0 1.1-.7 1.8zm32.4 6.8c-1.9 5.6-2.3 6.4-1.9 3.4.5-4 3.4-11.9 4.1-11.2.2.2-.8 3.7-2.2 7.8zm-55-1.2c-.4 2.3-1.1 4.3-1.6 4.7-1.2.7-1.1-1.1.3-5.7 1.4-4.9 2.2-4.3 1.3 1zm10 5.7c-.8 2-1.8 3.5-2 3.2-.3-.3.1-1.8 1-3.4.8-1.6 1.5-3.6 1.6-4.4 0-.9.3-1 .5-.3.3.6-.2 2.8-1.1 4.9zm-2.8-2.4c-.3.8-.6.5-.6-.6-.1-1.1.2-1.7.5-1.3.3.3.4 1.2.1 1.9zm7.7 2.2c-.3 1.5-.8 2.5-1.1 2.3-.2-.3-.1-1.7.3-3.1.3-1.5.8-2.5 1.1-2.3.2.3.1 1.7-.3 3.1zm-9.3 3.3c-1.2 2-1.4 1.4-.5-1.2.4-.9.9-1.4 1.1-1.1.3.2 0 1.3-.6 2.3zm36.1-.2c-.6 3.3-1.8 4-2.5 1.5-.4-1.6.9-3.4 2.9-4 .1 0-.1 1.1-.4 2.5zm-24.6 2.2c-1.1 1.1-1.7-.4-.9-2.3.7-1.8.8-1.8 1.1-.1.2 1 .1 2.1-.2 2.4zM144 435c-1.7 3.2-2 2-.7-2.3.9-2.8 1.3-3.3 1.5-1.8.2 1.1-.2 3-.8 4.1zm3.4-1.1c-.9 2.3-1.8 4-2.1 3.8-.2-.3.1-1.5.6-2.8.5-1.3 1.2-3.3 1.5-4.3.4-1 .9-1.7 1.2-1.4.3.3-.3 2.4-1.2 4.7zm-44.5 2.3c-1.9 5-4.5 9.8-5.3 9.8-.3 0-.2-2.6.3-5.3 0-.5.5-.5 1.1-.2.6.3.7-.1.4-.9-.3-.9-.1-1.6.4-1.6.6 0 1.6-1.6 2.3-3.5.7-1.9 1.7-3.5 2.1-3.5.4 0-.2 2.4-1.3 5.2zm32.5-.9c-.2 1.1-.8 2.5-1.4 3.1-1.7 1.7-2.2-.2-.9-3.8 1.3-3.7 3.1-3.1 2.3.7zm-27.9 2.2c-2.3 4.7-3 3.9-1-1 .9-2 1.9-3.5 2.1-3.2.3.3-.2 2.2-1.1 4.2zm-15.8 4.2c-.3 1-.5.2-.5-1.7s.2-2.7.5-1.8c.2 1 .2 2.6 0 3.5zm47.8-1.8c-.3 1.2-1.1 2.1-1.6 2.1-.6 0-.7-.6-.2-1.3.4-.6.8-1.5.9-2 .1-.4.2-1 .3-1.4 0-.3.4-.4.7 0 .3.3.3 1.5-.1 2.6zm-6 2c-.3.6-1.1 1.1-1.7 1.1-.6 0-.6-.6.2-1.5 1.4-1.7 2.6-1.3 1.5.4zm5.8 3.6c-.3.9-.8 1.4-1 1.1-.3-.3-.2-.9.2-1.5.9-1.6 1.5-1.3.8.4zm-44.2 2.2c-1.2 2-1.4 1.4-.5-1.2.4-.9.9-1.4 1.1-1.1.3.2 0 1.3-.6 2.3zm45.3 2.7c-.3 1.5-.8 2.5-1.1 2.3-.2-.3-.1-1.7.3-3.1.3-1.5.8-2.5 1.1-2.3.2.3.1 1.7-.3 3.1zM89.5 453c-.4 1.7-.9 2.9-1.2 2.6-.3-.2-.2-1.9.2-3.6.4-1.7.9-2.9 1.2-2.6.3.2.2 1.9-.2 3.6zm15.2.2c-.3.8-.6.5-.6-.6-.1-1.1.2-1.7.5-1.3.3.3.4 1.2.1 1.9zm111.4.1c-1 .9-1.1.8-.5-.6.3-1 .9-1.5 1.2-1.2.3.3 0 1.1-.7 1.8zm-113 4c-1 .9-1.1.8-.5-.6.3-1 .9-1.5 1.2-1.2.3.3 0 1.1-.7 1.8zm-15.4 3.9c-.3.8-.6.5-.6-.6-.1-1.1.2-1.7.5-1.3.3.3.4 1.2.1 1.9zm-.4 3.3c-.3.9-.8 1.4-1 1.1-.3-.3-.2-.9.2-1.5.9-1.6 1.5-1.3.8.4zm602.7 73c0 .8-.4 1.5-.8 1.5-.5 0-.9-.7-.9-1.5s.4-1.5.9-1.5c.4 0 .8.7.8 1.5zM71.1 557.1c1 1.2 1.6 2.6 1.3 3.1-.3.5-.3 1.7.1 2.6 2.1 4.8 2.4 14 .5 15.2-2.1 1.4-6.4 1.2-7.8-.2-1.5-1.5-1.5-5.1 0-6.6.9-.9.9-1.2-.1-1.2-.9 0-1.1-1-.8-3.3 1-7 2.8-11.7 4.5-11.7.2 0 1.3 1 2.3 2.1z"/><path d="M528.5 52c-.3.5-.1 1 .4 1 .6 0 1.1-.5 1.1-1 0-.6-.2-1-.4-1-.3 0-.8.4-1.1 1zM448 .3C448 2 458.5 11 460.5 11c.7 0-.2-4.6-1.3-6.7-1-1.8-.9-2.1.6-1.9 1.1.2 1.7 1.2 1.7 2.8-.1 1.7.4 2.4 1.2 2.1.7-.3 1.3-.9 1.3-1.5 0-.5.6-.6 1.2-.2.7.5.2-.5-1.1-2.1-1.9-2.5-3.1-3-7.3-3.2-4-.1-4.9.1-4.4 1.3.3.8.1 1.4-.3 1.4-.5 0-1.1-.7-1.5-1.5C450.2.3 448-.7 448 .3zM546 1.9c0 2.5.6 2.7 1.3.6.4-.8.2-1.7-.3-2-.6-.4-1 .3-1 1.4zM573 1c0 .5.7 1 1.6 1 .8 0 1.2-.5.9-1-.3-.6-1-1-1.6-1-.5 0-.9.4-.9 1zM619 1.5c-.7.8-1 1.6-.6 1.6.3.1 1.1.3 1.6.4.6.1 1.3.3 1.6.4.4 0 .1.7-.5 1.5-1 1.1-.9 1.6.5 2.4.9.5 1.4 1.4 1 2.1-.9 1.3-4.3 1.5-5 .2-.8-1.3-4.4-.2-5 1.6-.3.7-.2 1.2.3.9.5-.3 1.4.1 2.1.9 1.9 2.2 4.6 1.8 6.4-1 1.9-2.9 4-2.4 6 1.5 1.2 2.5 1.2 2.9-.2 3.5-1.2.4-1.3.8-.4 1.7.7.7 1.2 2.2 1.2 3.4 0 2.4 2.2 4.8 3.5 3.6.5-.4.5.1.2 1-.4 1.2-.2 1.5.9 1.1.7-.3 1.4 0 1.4.6 0 .7.9.9 2.4.5 2.5-.6 4.5 1.9 2.5 3.2-.6.3-.8 1.7-.5 2.9.3 1.3.1 2.7-.4 3-.6.4-.8 1.1-.5 1.6.3.5-.1.6-.9.3-1.1-.4-1.6 0-1.6 1.1 0 .9-.5 1.3-1.1.9-.7-.4-1-.1-.7.7.3.8 1.3 1.4 2.4 1.4 1 0 2.4.4 3.1.8 1.5.9 2.7-.9 1.7-2.6-.6-.9-.5-.9.7 0 .8.6 2.6 1 4 .9 2.1-.2 2.5.1 2.1 1.6-.2 1-.8 1.8-1.3 1.8s-.9.9-.9 2c0 2 .1 2 3.1.5 1.7-.9 3.3-1.4 3.6-1.1.9.8 4.4-1.4 3.8-2.4-.3-.5-.1-1.1.4-1.4.5-.3.9 1.2.9 3.3.1 3.8-1.3 6.1-4 6.5-.7.1-2.8.8-4.6 1.5-3.9 1.6-4.1 5-.4 6.6 1.5.6 2.1 1.6 1.9 2.7-.3 1-.1 1.6.3 1.5 1.1-.3 7 4.2 7 5.3 0 .5-.6.7-1.4.4-2.3-.9-2.8 1.3-1.1 4.5 1.7 3.4 2.1 8.6.5 7.6-.5-.3-1-.2-1 .4 0 .5.5 1.3 1 1.6.6.4 1 1.2.9 1.8-.2 1.2.2 2.6 2.2 7.5.5 1.3 1.4 2 2 1.6.6-.3 1.5 0 2 .7.7 1.1.9 1.1.9-.3 0-.9-.5-2-1.2-2.4-.7-.5-.5-1.1.7-2.1 1.7-1.1 1.7-1.7.7-4.6-.7-1.9-1.2-4.4-1.2-5.8 0-2.3.1-2.3 1.6.6.9 1.6 1.7 3.9 1.9 5 .1 1.1.8 3.3 1.4 4.8 1.4 3.5 1.4 4 .1 3.2-1.3-.8.9 4.5 2.7 6.5 1.2 1.3 1.3.7.7-3.9-.6-4.3-.4-5.2.6-4.6 1 .6 1.2.4.7-.8-.3-1-.2-1.7.2-1.7.5 0-1.7-5.7-5-12.8-6.7-14.4-6.8-15.6-5-36.7.6-6.6 1.1-18.9 1.1-27.3V0h-21.4C623.8 0 620 .3 619 1.5zm39 57.7c0 1.2-.3 1.8-.6 1.5-.4-.3-1.8.3-3.2 1.3-1.4 1.1-2.8 1.7-3.1 1.4-.3-.4 0-.9.8-1.2.7-.2 2.3-1.5 3.4-2.8 2.5-2.9 2.7-3 2.7-.2zM599.4 4c-1.2.4-2.4 1.6-2.7 2.4-.5 1.3-.3 1.5 1.2.7 1.6-.9 4.9-4.2 4-4-.2 0-1.3.4-2.5.9zM554 13.1c0 1.1-.4 1.8-.9 1.5-.4-.3-.6.6-.3 2 .2 1.4.8 2.2 1.2 1.7 1.2-1.4 2-7.3 1-7.3-.6 0-1 .9-1 2.1z"/><path d="M610.2 15.5c.3 2.1 4.8 3.5 4.8 1.5 0-.7-.7-1-1.5-.6-.8.3-1.9-.3-2.5-1.2-1-1.5-1-1.5-.8.3zM555.8 18.6c-.5.4-.8 1.6-.8 2.8 0 1.4.3 1.7 1.1.9.6-.6.9-1.9.7-2.8-.1-.9-.6-1.3-1-.9zM598 18.4c0 .2.7.7 1.6 1 .8.3 1.2.2.9-.4-.6-1-2.5-1.4-2.5-.6zM608 20.5c.7.9 1.5 1.3 1.7 1.1.7-.7-.7-2.6-1.9-2.6-.6 0-.6.6.2 1.5zM551.2 29l.1 9.5.7-7.5c.4-4.1.3-8.4-.1-9.5-.4-1.2-.7 1.9-.7 7.5zM469 22.7c0 2.3.2 2.8 1.1 2.5.5-.1.9.5.9 1.3s.5 1.5 1.1 1.5c.5 0 .7.5.3 1.2-.4.7-.3.8.5.4.7-.5 1.5.4 2.2 2.3.6 1.7 1.5 2.8 2.1 2.5.5-.3.3-1.6-.6-3-.9-1.3-1.6-2.7-1.6-3.1 0-.4 1.6 1.6 3.4 4.6 2.1 3.4 4.1 5.5 5.4 5.6 2.5.2 1.8-2.2-1.5-4.8-1.3-1-2.1-2.3-1.8-2.8.4-.5.1-.9-.5-.9s-2.3-1.2-3.7-2.6c-1.9-1.9-2.4-2.1-1.9-.7.4 1-.7.2-2.3-1.7-1.7-1.9-3-2.9-3.1-2.3zM606.2 23.9c.2.7.7 1.2 1.1 1.2 1.2-.1.9-1.5-.3-2-.7-.2-1.1.2-.8.8zM623.5 24c.3.5.8 1 1.1 1 .2 0 .4-.5.4-1 0-.6-.5-1-1.1-1-.5 0-.7.4-.4 1zM631 31.3c0 .8.7 1.8 1.6 2.1 1.1.4 1.4.1 1.2-1.1-.4-2.1-2.8-3-2.8-1zM550 39.9c0 .6.4 1.3 1 1.6.6.3.7-.1.4-.9-.7-1.8-1.4-2.1-1.4-.7zM489 44c-1.1.7-1.2 1.2-.4 2 .8.8 1.3.6 1.7-.9.3-1.2.4-2.1.4-2.1-.1 0-.9.5-1.7 1zM577.7 51.9c-.4 1.7-.3 2.1.5 1.3.5-.5.8-1.6.6-2.3-.3-.8-.7-.3-1.1 1zM578.2 59.1c-.1 2.4.2 2.8 1.3 1.9.7-.6 1.1-2 .8-3-.8-3-2-2.4-2.1 1.1zM630.8 64.5c.3 1.9 0 2.5-1.4 2.5-1.7 0-1.7.1.1 1.4 2.5 1.8 6.3.2 4.6-1.8-.6-.7-.8-1.5-.5-1.9.3-.3-.3-1-1.4-1.6-1.7-.9-1.9-.7-1.4 1.4zM579.9 68.2c-.6 9.1-.2 29.5.5 29 .5-.3.7.2.3 1.1-.4 1-.2 1.7.5 1.7s.8-2.2.3-7.3c-.4-3.9-.6-11.6-.6-17 .1-5.3-.1-9.7-.4-9.7-.3 0-.6 1-.6 2.2zM621.9 86.4l-1.5 3.3 3.5-.9c2-.5 4.8-1.2 6.3-1.5 2.9-.6 5.9-3.2 3.9-3.4-.6-.1-1.7-.2-2.3-.4-.7-.1-2.3.4-3.5 1.2-2.9 1.7-4.7 1.7-3.9-.2 1.1-3-1-1.4-2.5 1.9zM614 88.8c0 .4 1 .9 2.2.9 1.8.2 2 0 .8-.7-1.8-1.2-3-1.3-3-.2zM579.2 106c0 1.4.2 1.9.5 1.2.2-.6.2-1.8 0-2.5-.3-.6-.5-.1-.5 1.3zM658 116c0 .5.5 1 1.1 1 .5 0 .7-.5.4-1-.3-.6-.8-1-1.1-1-.2 0-.4.4-.4 1zM470.3 161.7c-2.1.8-1.5 2.2.7 1.6 1.1-.3 2-.9 2-1.4 0-1-.8-1-2.7-.2zM461.8 163.7c.7.3 1.6.2 1.9-.1.4-.3-.2-.6-1.3-.5-1.1 0-1.4.3-.6.6zM424.1 169.6c0 1.1.3 1.4.6.6.3-.7.2-1.6-.1-1.9-.3-.4-.6.2-.5 1.3zM508.8 170.2c.6.6 1.8.8 2.8.6 1.4-.3 1.2-.5-.9-1-1.9-.3-2.5-.2-1.9.4zM497.5 171c.3.5.8 1 1.1 1 .2 0 .4-.5.4-1 0-.6-.5-1-1.1-1-.5 0-.7.4-.4 1zM325.6 174.3c.5 1.5.3 1.8-.7 1.2-1-.5-1.1-.5-.4.2 1.5 1.6 5.5 2.6 5.5 1.4 0-.6-.7-1.1-1.6-1.1-.8 0-1.3-.4-1-.9.3-.4 1.7-.7 3.1-.6 1.4.2 2.5-.2 2.5-.9s-1.6-1.2-4-1.2c-3.6-.1-4 .1-3.4 1.9zM501 172.4c0 .2.7.7 1.6 1 .8.3 1.2.2.9-.4-.6-1-2.5-1.4-2.5-.6zM518 174c0 .5.5 1 1 1 .6 0 1-.5 1-1 0-.6-.4-1-1-1-.5 0-1 .4-1 1zM514.5 175c.3.5.8 1 1.1 1 .2 0 .4-.5.4-1 0-.6-.5-1-1.1-1-.5 0-.7.4-.4 1zM515 179c0 .6.7 1 1.5 1s1.5-.2 1.5-.4-.7-.6-1.5-1c-.8-.3-1.5-.1-1.5.4zM570.5 229c-.3.6.1.7.9.4 1.8-.7 2.1-1.4.7-1.4-.6 0-1.3.4-1.6 1zM657 230.4c0 .8.4 1.7.9 2 .5.4.7-.3.4-1.4-.6-2.3-1.3-2.6-1.3-.6zM567.3 232.2c-1.9 2.5-2.2 4.6-.7 5.2.8.3 1.4-.1 1.4-1 0-1.2.4-1.3 2.1-.3 1.5.8 2.4.8 3.2 0 .8-.8.2-1.4-2.1-2.2-1.8-.6-2.9-1.5-2.6-2 .8-1.4-.2-1.1-1.3.3zM570 241c-.8.5-1 1-.5 1 .6 0 1.7-.5 2.5-1s1.1-1 .5-1c-.5 0-1.7.5-2.5 1zM568.5 244c.3.5.8 1 1.1 1 .2 0 .4-.5.4-1 0-.6-.5-1-1.1-1-.5 0-.7.4-.4 1zM575 268.6c0 .5.9 2 2 3.4 1.4 1.8 2 2.1 2 .9 0-.9-.9-2.4-2-3.4s-2-1.4-2-.9zM675.1 273.6c0 1.1.3 1.4.6.6.3-.7.2-1.6-.1-1.9-.3-.4-.6.2-.5 1.3zM674.8 278.4c-.3 1.4-.1 2.6.4 2.6 1.4 0 2.2-3 1.1-4.1-.7-.7-1.2-.2-1.5 1.5zM579 281.9c1.3 2.4 3 3.6 3 2.1 0-1.2-2.4-4-3.5-4-.3 0-.1.9.5 1.9zM492.6 330.9c-.3.5-2.6.8-5.1.7-2.5-.1-4.6.3-4.8.8-.2.6-1.6.5-3.5-.2-2-.7-4.3-.8-6.2-.2-1.6.5-3 .6-3 .2 0-.4-.4-.2-.8.4-.4.6-4 1.4-8.1 1.7-4.1.3-7.7 1.1-8.1 1.7-.4.6-1.3.8-2.2.5-.8-.3-3.8.3-6.7 1.5-2.9 1.1-6.9 2.2-8.9 2.5-4.5.6-7.2 3.6-7.2 8.1 0 3.5 0 3.5 7 6 1 .4.4 1.4-2.3 3.8-2 1.8-3.7 3.6-3.7 4 0 .4-1.1 1.9-2.5 3.4s-2.5 3.2-2.5 3.9c0 .7-1 1.3-2.1 1.3-3.2 0-5.9 3.7-5.9 8 0 2 .4 4 1 4.6 1.2 1.2 1.5 5.3.6 7.5-.4 1-.2 2 .5 2.5.8.5 1 .3.5-.7-.4-.8-.1-.6.6.5 3.1 4.5 6.9 8 7.6 7.1.9-1.4 3.1-1.3 4 .2.7 1.1 6.1 1.1 8.1-.1 1.7-1.1 4.9.3 5.6 2.5.5 1.5 1.3 1.8 3.6 1.4 1.9-.4 2.9-.1 2.9.7 0 .8.3.9.8.3.4-.6 1.3-1 2-1.1 3.1-.2 3.3-.4 2.3-2.2-.8-1.5-.3-1.7 3.7-1.9 2.6-.1 6.6-.3 9-.5 2.9-.2 4.6.2 5.3 1.2.8 1.1 1.2 1.2 1.6.2.6-1.5 3.5-1.6 5.1 0 .9.9 1.2.9 1.2 0 0-.7 1.1-1.2 2.5-1.2 3.5 0 11.5-2 14.5-3.5 1.4-.8 4.4-2.4 6.8-3.6 2.3-1.2 4.2-2.7 4.2-3.2 0-1.1 5-5.2 6.5-5.2 1.4-.1 6.7-3.5 8.2-5.3.8-.9 1-3.2.6-6.5-.6-5.2-1-5.9-4.9-10.2-1.2-1.3-2-2.6-1.7-2.9 1.1-1.1-5.4-3.3-8.4-2.9-2.4.4-4.5-.2-7.9-2.2-2.6-1.5-4.4-2.2-4-1.6.5.8 0 .8-1.7.2-1.4-.6-2.8-.7-3.1-.4-.3.4-.6.2-.6-.3 0-.6.5-1.5 1-2 .7-.7.2-1.5-1.5-2.4-3.6-1.9-3.1-2.8 1.5-2.4 3.1.3 4 .1 4-1.2 0-.8.4-1.2 1-.9.5.3 1.9.1 3-.5 1.6-.8 3-.8 5.8.1 2.6.9 3.7.9 4 .1.2-.7 1.5-.9 3.4-.5 2 .4 2.9.3 2.5-.4-.5-.7 1.2-1 4.8-.7 4.4.2 5.3 0 4.8-1.2-.3-.9-1.3-1.2-2.4-.9-1.3.4-1.9.2-1.7-.6.2-.7-.6-1.4-1.7-1.6-1.1-.3-2.7-.7-3.5-1-.8-.3-1.8-.5-2.2-.5-.5.1-.8-.2-.8-.6 0-.5-.6-.9-1.2-1-3.8-.3-5.4-.8-6.6-2-1.6-1.4-3.6-1.6-2.7-.2.7 1.2-6.6.3-7.9-1-1.2-1.2-3.3-1.3-4-.1zm-1.4 17.6c.3 0 1 .4 1.5.9s.3.6-.4.2c-.8-.5-1.3-.1-1.4 1.1 0 1.6-.1 1.7-.7.1-.5-1.3-1.1-1.5-2.2-.8-2.6 1.6-3.4 1.1-1.4-.9 1-1 2.4-1.6 2.9-1.2.6.3 1.3.6 1.7.6zm13.2 24.3c1.6 1.8 1.5 2-2.2 4.4-5.5 3.7-11.3 6.5-15.1 7.3l-3.4.7 2.8-3.6c1.5-2 2.4-4 2-4.4-.4-.4-1-.1-1.2.5-.6 1.7-3.6 1.7-3.1.1.3-.7 1.8-1.9 3.4-2.8 1.6-.9 3-2.5 3.2-3.6 1-6.7.6-6.5 6.5-3.3 3 1.6 6.1 3.7 7.1 4.7zM486 367c0 1.2-2.4 3-4.1 3-1.6 0-3.3-2.3-2.3-3.2.6-.7 6.4-.5 6.4.2zm-29.2 3.6c.2 2 1.2 5.4 2.2 7.5 1.1 2.1 2 4.3 2 4.8 0 .6-2.1 1-4.8 1-2.7-.1-5.8.1-6.9.5-1.7.5-2.4 0-3.7-2.9-1-2-2.4-3.9-3.2-4.2-2.4-.9-1.6-2.3 2.1-3.9 2-.8 3.8-2.1 4.1-2.9.3-.7 1.2-1.6 2-1.9 1.2-.4 1.4-.1.9 1.4-.4 1.1-.2 2 .4 2 .6 0 1.3-1.1 1.7-2.5.9-3.7 3-3 3.2 1.1zm32.7-1.6c-.3.5-1.1 1-1.6 1-.6 0-.7-.5-.4-1 .3-.6 1.1-1 1.6-1 .6 0 .7.4.4 1zm-19.3 8.1c2.1 1.3 0 3.8-3.3 3.7-2.6-.1-3.4-.7-4.6-3.6-1.6-3.8-1.6-3.8 1.7-5 2.1-.8 2.6-.5 3.8 1.7.7 1.4 1.8 2.9 2.4 3.2zm-27.2 3c0 .5-.4.9-1 .9-.5 0-1-.7-1-1.6 0-.8.5-1.2 1-.9.6.3 1 1 1 1.6zM353.5 396c.3.5.8 1 1.1 1 .2 0 .4-.5.4-1 0-.6-.5-1-1.1-1-.5 0-.7.4-.4 1z"/><path d="M441.6 402.3c.3 1 .9 1.5 1.2 1.2.3-.3 0-1.1-.7-1.8-1-.9-1.1-.8-.5.6zM361.5 459c-.4.6-1.1.8-1.6.5-.5-.4-.9-.1-.9.5 0 .7-.6 1-1.4.7-1-.4-1.2 0-.8 1.5.3 1.3.1 1.9-.5 1.5-1.1-.7-5.8 16.1-4.8 17.1.3.3.5 0 .5-.7 0-1 .7-.9 2.6.4 1.5.9 2.3 1.2 1.9.6-.4-.7-.1-1.8.5-2.6s.8-2 .4-2.6c-.5-.8-.3-.9.6-.4 1 .6 1.2.4.7-.8-.3-.9-.2-1.9.4-2.2.5-.4.6-1.2.2-1.8-.4-.7 0-.6 1 .2 1.5 1.1 1.7 1.1 1.7-.2 0-.8.6-2 1.4-2.6 1.4-1.2 2.8-8.3 1.4-7.5-.4.3-.8-.2-.8-1 0-1.8-1.6-2.1-2.5-.6zm-1.5 5c0 .5-.4 1-1 1-.5 0-1-.5-1-1 0-.6.5-1 1-1 .6 0 1 .4 1 1zm2.7.5c0 .8-.4 1.2-.9.9-.5-.3-.6-1-.3-1.5.9-1.3 1.2-1.1 1.2.6zM343 468.1c0 1-.7 1.9-1.5 1.9-1.9 0-4.4 3.8-5 7.6-.3 1.6-.8 4.5-1.1 6.4-.6 3.2-.6 3.4 1 2.1 1.4-1.2 1.6-1.2 1 .3-.4.9-.1 1.6.6 1.6s1 .6.7 1.3c-.6 1.6 2.7 3.9 4.5 3.2 1.6-.7 4.1-6 6.9-14.8 2.2-6.6 2.2-6.8.3-8.2-1-.8-3.1-1.9-4.6-2.4-2.4-.9-2.8-.7-2.8 1zM431 470.4c-1.4 3.8-1.3 7.8.5 12 1.7 4 2.6 4.4 4.9 2.1.8-.8 1.9-1.5 2.4-1.5 2.5 0 1.9-7.8-.8-9.5-.5-.3-.8-1.1-.5-1.6.4-.5.1-.9-.6-.9s-2.1-.7-3-1.6c-1.7-1.6-1.9-1.5-2.9 1zM327.4 475.4c-.7 3 0 5.6 1.7 5.6.8 0 .8-.4-.1-1.5-1.1-1.3-1-1.4.2-1 2.2.9 4.2-2 2.9-4.2-.7-1.2-1-1.3-1.1-.4 0 1.1-.3 1.1-1.5.1s-1.5-.7-2.1 1.4zM416.5 477.6c-1 1-1.3 2.4-.9 3.8 1 3.4 2.1 4 4.9 2.8 2.5-1.2 3.4-3.2 1.4-3.2-.7 0-.9-1-.5-2.5.5-2 .3-2.5-1.3-2.5-1.1 0-2.7.7-3.6 1.6zM324.5 482c.3.5.8 1 1.1 1 .2 0 .4-.5.4-1 0-.6-.5-1-1.1-1-.5 0-.7.4-.4 1z"/><path d="M353.3 483.5c0 1.3.3 2.2.8 1.9.5-.3.9-1.4.9-2.5 0-1-.4-1.9-.9-1.9s-.8 1.1-.8 2.5zM305.4 533.3c-.6 1.7 1.2 6.7 2.5 6.7.5 0 1.3.9 1.6 2 .4 1.1 1.2 2 1.8 1.9 3.2-.4 4.9.7 11.8 7.7 18.8 19.2 22.5 22.5 28.6 25.5 9.7 4.7 14.9 5.9 26.8 6.6 9.1.4 12.5.2 19.8-1.6 16.4-3.9 24.1-10.2 13.9-11.3-2.1-.3-4.1-1.3-5.3-2.8l-1.9-2.5v3c0 2.7-.1 2.8-1.6 1.3-2.1-2.1-1.2-4.5 2-5.8 1.3-.5 3.2-2.3 4.3-4 1.2-2.1 2.4-3 3.6-2.6 1 .2 2.1-.2 2.4-1 .5-1.5 5.8-4.4 8-4.4.7 0 1.3-.5 1.3-1 0-.6.9-1 2-1s2-.4 2-.8c0-1 8.3-3.4 10.7-3 1 .1 3.9-1.1 6.5-2.9 2.5-1.7 6-3.4 7.7-3.8 1.7-.4 3.1-1.1 3.1-1.6 0-2.1-3.1-1.9-8.3.6-4.5 2.1-8 2.8-17.9 3.5-15.1 1.2-25.5 3.2-37.5 7.2-8.4 2.8-9.5 3-12 1.8-1.6-.8-5.3-1.9-8.3-2.6-7.3-1.6-8.9-2-17.3-4.3-4-1-8.8-2.2-10.7-2.5-1.9-.3-5.7-1.2-8.5-2.1-2.7-.8-6.3-1.5-7.8-1.5-1.6 0-5.9-1.4-9.7-3-7.3-3.2-12.7-3.9-13.6-1.7zm73.4 31.8c.2 2.2.1 2.3-1.1.6-1.6-2-4.3-2.3-5-.5-.3.7-.6.4-.6-.8-.1-2.8.6-3.3 3.7-2.5 1.9.5 2.8 1.5 3 3.2zm5.2 3.1c0 2-1.5 2.4-2.6.7-.3-.6-.1-1.5.6-1.9.9-.5.8-.9-.3-1.3s-1.3-1.3-.9-2.9c.5-2.2.6-2.2 1.8.7.7 1.7 1.3 3.8 1.4 4.7zm-19.7-2.7c1.5.4 2.7 1.4 2.7 2.2 0 1.3-.3 1.3-2.5-.1-3.5-2.3-3.8-2-.9 1.1 1.4 1.6 3 2.8 3.5 2.8.4 0 1.4.7 2.1 1.7 1.3 1.7 10 5 11.9 4.5.7-.1 1.4.4 1.6 1.2.4 1-.5 1.2-4.3.7-2.7-.4-7.4-.9-10.4-1.1-6.1-.6-8.1-1.1-12.7-3.2-3.3-1.5-5.8-5.1-2.7-3.9 1.2.5 1.5 0 1.3-2.2-.2-1.5 0-3.2.3-3.8.8-1.2 5.7-1.2 10.1.1zm-17.8 2.5c.3.5.1 1-.4 1-.6 0-1.1-.5-1.1-1 0-.6.2-1 .4-1 .3 0 .8.4 1.1 1zm29.5 3.6c0 .2-.7.4-1.5.4s-1.5-.4-1.5-1c0-.5.7-.7 1.5-.4.8.4 1.5.8 1.5 1zm14.7-1c-.3.3-1.2.4-1.9.1-.8-.3-.5-.6.6-.6 1.1-.1 1.7.2 1.3.5zm9.3 4.2c0 1-.5 1-2 .2-1.6-.9-1.8-1.3-.8-2.4 1.4-1.5 2.8-.4 2.8 2.2zm-12 4.3c0 .6-.4.7-1 .4-.5-.3-1-1.1-1-1.6 0-.6.5-.7 1-.4.6.3 1 1.1 1 1.6zM433.2 570.2c-1.7 1.7-1.5 3.2.6 5.1 2 1.9 4.8 2.2 5.6.8.3-.5.3-2.3 0-4-.5-2.3-1.2-3.1-2.8-3.1-1.2 0-2.7.5-3.4 1.2zM325.1 643.7c0 1.1.3 1.3.6.5.2-.6.9-1 1.4-.6.5.3.9 0 .9-.5 0-.6-.7-1.1-1.5-1.1s-1.5.8-1.4 1.7zM366 690c0 .5.4 1 .9 1 .6 0 1.3-.5 1.6-1 .3-.6-.1-1-.9-1-.9 0-1.6.4-1.6 1z"/></svg>